<svg width="298" height="131" viewBox="0 0 298 131" fill="none" xmlns="http://www.w3.org/2000/svg">
<path d="M34 18H48V97H34V18Z" fill="black"/>
<path d="M69.9194 97H57V38H69.3933V48.6737C70.6721 45.43 72.5574 42.8381 75.0492 40.906C77.541 38.9739 80.5662 38 84.1249 38H90V49.9461H84.8118C81.8596 49.9461 79.2655 50.7079 77.0221 52.2316C74.7788 53.7632 73.0396 55.9859 71.7901 58.8998C70.5405 61.8058 69.9194 65.3637 69.9194 69.5578V97Z" fill="white"/>
<path d="M144 67.9351C144 68.6906 143.978 69.3978 143.941 70.0569C143.911 70.732 143.837 71.6322 143.733 72.7574H100.181C100.641 76.0526 101.606 78.8576 103.076 81.1723C104.538 83.479 106.356 85.2391 108.523 86.4768C110.698 87.7065 113.073 88.3254 115.634 88.3254C118.959 88.3254 121.645 87.6101 123.709 86.1875C125.772 84.7488 127.279 82.7637 128.221 80.2239H142.545C141.848 82.9244 140.72 85.5284 139.146 88.036C137.573 90.5436 135.643 92.7619 133.372 94.7069C131.093 96.6358 128.481 98.1629 125.534 99.3042C122.588 100.437 119.382 101 115.916 101C111.722 101 107.855 100.172 104.323 98.5085C100.797 96.8528 97.7469 94.5542 95.1641 91.6206C92.5812 88.6871 90.5699 85.2793 89.1375 81.3973C87.7125 77.5154 87 73.3843 87 68.996C87 64.5755 87.7125 60.4364 89.1375 56.5786C90.5699 52.7207 92.5812 49.321 95.1641 46.3874C97.7469 43.4538 100.797 41.1552 104.323 39.4835C107.855 37.8278 111.722 37 115.916 37C120.102 37 123.924 37.8278 127.375 39.4674C130.826 41.107 133.787 43.3735 136.266 46.2588C138.745 49.1281 140.66 52.4233 141.996 56.1445C143.332 59.8658 144 63.7879 144 67.9351ZM100.73 61.7866H130.611C130.433 59.5121 129.654 57.4466 128.28 55.5739C126.9 53.7173 125.126 52.2144 122.952 51.0972C120.784 49.9559 118.417 49.3933 115.856 49.3933C113.645 49.3933 111.529 49.8354 109.503 50.7114C107.484 51.5875 105.703 52.9377 104.159 54.7622C102.623 56.5866 101.48 58.9254 100.73 61.7866Z" fill="white"/>
<path d="M171.159 101C167.335 101 163.82 100.185 160.6 98.5557C157.395 96.9182 154.63 94.6417 152.318 91.7181C149.998 88.8026 148.198 85.4237 146.916 81.5736C145.641 77.7155 145 73.5938 145 69.1925C145 64.7912 145.619 60.6774 146.873 56.8433C148.119 53.0091 149.905 49.6303 152.231 46.7147C154.565 43.7992 157.345 41.5146 160.572 39.8612C163.806 38.2077 167.385 37.3849 171.318 37.3849C174.263 37.3849 176.943 37.9601 179.341 39.1103C181.747 40.2526 183.821 41.7143 185.55 43.4876C187.285 45.2609 188.632 47.0981 189.583 48.9992L189.324 42.7528V17H202V99.1948H189.9V89.0981C188.841 91.1989 187.422 93.148 185.636 94.9612C183.85 96.7744 181.74 98.2282 179.312 99.3385C176.892 100.449 174.177 101 171.159 101ZM173.478 87.9798C175.682 87.9798 177.757 87.5086 179.687 86.558C181.617 85.5995 183.303 84.2735 184.757 82.5641C186.212 80.8547 187.357 78.8498 188.186 76.5732C189.007 74.2967 189.425 71.8364 189.425 69.1925C189.425 66.5405 189.021 64.0882 188.215 61.8437C187.408 59.5831 186.277 57.6021 184.815 55.8847C183.36 54.1754 181.675 52.8414 179.745 51.8908C177.814 50.9323 175.726 50.453 173.478 50.453C170.489 50.453 167.788 51.2598 165.368 52.8813C162.948 54.4949 161.04 56.6995 159.635 59.4952C158.231 62.299 157.532 65.5261 157.532 69.1925C157.532 72.7311 158.209 75.9182 159.578 78.7619C160.953 81.6056 162.84 83.8501 165.239 85.5036C167.637 87.1571 170.389 87.9798 173.478 87.9798Z" fill="#50C878"/>
<path d="M229.456 101C225.809 101 222.434 100.188 219.326 98.5487C216.225 96.901 213.526 94.6024 211.224 91.6608C208.929 88.7272 207.151 85.3275 205.885 81.4616C204.626 77.5797 204 73.4325 204 68.996C204 64.5755 204.64 60.4364 205.914 56.5786C207.202 52.7207 208.986 49.321 211.281 46.3874C213.577 43.4538 216.268 41.1552 219.354 39.4835C222.441 37.8278 225.794 37 229.399 37C233.81 37 237.738 38.0689 241.17 40.1988C244.602 42.3286 247.178 45.2703 248.898 49.0316V38.8084H261V99.1836H248.898V89.0327C247.149 92.794 244.566 95.7276 241.141 97.8334C237.724 99.9471 233.831 101 229.456 101ZM232.493 87.8592C234.709 87.8592 236.781 87.377 238.709 86.4286C240.638 85.4641 242.329 84.1219 243.775 82.4261C245.235 80.7222 246.365 78.721 247.171 76.4223C247.977 74.1398 248.38 71.6563 248.38 68.996C248.38 66.3759 247.97 63.9245 247.142 61.642C246.315 59.3514 245.185 57.3421 243.746 55.6141C242.314 53.8861 240.638 52.5439 238.709 51.5955C236.781 50.631 234.709 50.1488 232.493 50.1488C229.586 50.1488 226.931 50.9284 224.535 52.4876C222.139 54.0629 220.218 56.249 218.779 59.0861C217.34 61.8992 216.62 65.2105 216.62 68.996C216.62 72.9101 217.347 76.2777 218.793 79.0987C220.254 81.9198 222.189 84.0818 224.607 85.5847C227.032 87.1037 229.665 87.8592 232.493 87.8592Z" fill="#50C878"/>
<path d="M216.993 131C215.929 131 215.017 130.839 214.257 130.527C213.504 130.197 212.889 129.775 212.404 129.242C211.919 128.701 211.565 128.101 211.333 127.451C211.109 126.783 211 126.124 211 125.456H213.692C213.692 125.989 213.815 126.47 214.069 126.91C214.329 127.349 214.706 127.696 215.198 127.958C215.69 128.22 216.283 128.346 216.978 128.346C219.171 128.346 220.264 127.493 220.264 125.777C220.264 125.245 220.127 124.823 219.844 124.493C219.562 124.155 219.171 123.885 218.657 123.682C218.158 123.47 217.565 123.285 216.877 123.141C216.385 123.014 215.878 122.87 215.357 122.701C214.843 122.532 214.351 122.321 213.881 122.076C213.41 121.814 212.983 121.501 212.607 121.13C212.23 120.758 211.934 120.31 211.709 119.794C211.485 119.279 211.376 118.654 211.376 117.935C211.376 116.997 211.572 116.161 211.955 115.417C212.339 114.673 212.94 114.09 213.75 113.659C214.568 113.22 215.618 113 216.891 113C218.115 113 219.142 113.211 219.96 113.642C220.778 114.073 221.4 114.673 221.813 115.451C222.226 116.228 222.435 117.132 222.435 118.155H219.743C219.743 117.715 219.642 117.318 219.439 116.955C219.236 116.583 218.925 116.287 218.498 116.076C218.071 115.865 217.528 115.755 216.862 115.755C216.305 115.755 215.842 115.814 215.473 115.941C215.118 116.068 214.836 116.237 214.633 116.448C214.431 116.651 214.286 116.887 214.199 117.158C214.112 117.42 214.069 117.682 214.069 117.952C214.069 118.662 214.38 119.211 214.995 119.592C215.61 119.972 216.537 120.285 217.774 120.521C218.448 120.656 219.099 120.851 219.729 121.113C220.358 121.358 220.908 121.687 221.393 122.093C221.885 122.49 222.276 122.989 222.566 123.597C222.855 124.197 223 124.924 223 125.794C223 126.91 222.747 127.856 222.247 128.634C221.755 129.403 221.06 129.986 220.163 130.392C219.265 130.797 218.209 131 216.993 131Z" fill="black"/>
<path d="M241.792 129H239.208V116.446H235V114H246V116.446H241.792V129Z" fill="black"/>
<path d="M263.508 112.285C263.127 112.285 262.812 112.172 262.57 111.954C262.336 111.736 262.219 111.466 262.219 111.142C262.219 110.834 262.336 110.564 262.57 110.346C262.812 110.113 263.127 110 263.508 110C263.889 110 264.196 110.113 264.431 110.346C264.665 110.564 264.782 110.834 264.782 111.142C264.782 111.466 264.665 111.736 264.431 111.954C264.196 112.172 263.889 112.285 263.508 112.285ZM267.463 112.285C267.089 112.285 266.789 112.172 266.555 111.954C266.32 111.736 266.203 111.466 266.203 111.142C266.203 110.834 266.32 110.564 266.555 110.346C266.789 110.113 267.089 110 267.463 110C267.851 110 268.166 110.113 268.4 110.346C268.642 110.564 268.767 110.834 268.767 111.142C268.767 111.466 268.642 111.736 268.4 111.954C268.166 112.172 267.851 112.285 267.463 112.285ZM273 129H270.114L268.928 126.039H262.058L260.886 129H258L264.196 113.683H266.789L273 129ZM265.397 117.666L262.995 123.694H267.99L265.588 117.666L265.515 117.305H265.485L265.397 117.666Z" fill="black"/>
<path d="M290.498 129H285V114H290.456C291.597 114 292.627 114.184 293.546 114.545C294.472 114.899 295.265 115.407 295.926 116.063C296.594 116.719 297.102 117.514 297.457 118.435C297.819 119.349 298 120.365 298 121.485C298 122.612 297.819 123.644 297.457 124.565C297.102 125.486 296.594 126.281 295.926 126.937C295.265 127.593 294.479 128.109 293.56 128.47C292.641 128.823 291.618 129 290.498 129ZM287.561 116.431V126.554H290.414C291.444 126.554 292.328 126.355 293.073 125.95C293.817 125.537 294.388 124.955 294.785 124.211C295.181 123.452 295.383 122.561 295.383 121.529C295.383 120.505 295.188 119.614 294.799 118.848C294.409 118.082 293.845 117.485 293.101 117.065C292.356 116.645 291.451 116.431 290.387 116.431H287.561Z" fill="black"/>
<path d="M47.8 19.6538V25.5769L58 15H24L34.9933 26V19.6538H47.8Z" fill="black"/>
<path d="M8.66717e-06 9H82V15H0V12L8.66717e-06 9Z" fill="black"/>
<path d="M1.68735e-05 0H82V6H4.33359e-06V3L1.68735e-05 0Z" fill="black"/>
<path d="M34 18H48V97H34V18Z" fill="black"/>
<path d="M69.9194 97H57V38H69.3933V48.6737C70.6721 45.43 72.5574 42.8381 75.0492 40.906C77.541 38.9739 80.5662 38 84.1249 38H90V49.9461H84.8118C81.8596 49.9461 79.2655 50.7079 77.0221 52.2316C74.7788 53.7632 73.0396 55.9859 71.7901 58.8998C70.5405 61.8058 69.9194 65.3637 69.9194 69.5578V97Z" fill="white"/>
<path d="M144 67.9351C144 68.6906 143.978 69.3978 143.941 70.0569C143.911 70.732 143.837 71.6322 143.733 72.7574H100.181C100.641 76.0526 101.606 78.8576 103.076 81.1723C104.538 83.479 106.356 85.2391 108.523 86.4768C110.698 87.7065 113.073 88.3254 115.634 88.3254C118.959 88.3254 121.645 87.6101 123.709 86.1875C125.772 84.7488 127.279 82.7637 128.221 80.2239H142.545C141.848 82.9244 140.72 85.5284 139.146 88.036C137.573 90.5436 135.643 92.7619 133.372 94.7069C131.093 96.6358 128.481 98.1629 125.534 99.3042C122.588 100.437 119.382 101 115.916 101C111.722 101 107.855 100.172 104.323 98.5085C100.797 96.8528 97.7469 94.5542 95.1641 91.6206C92.5812 88.6871 90.5699 85.2793 89.1375 81.3973C87.7125 77.5154 87 73.3843 87 68.996C87 64.5755 87.7125 60.4364 89.1375 56.5786C90.5699 52.7207 92.5812 49.321 95.1641 46.3874C97.7469 43.4538 100.797 41.1552 104.323 39.4835C107.855 37.8278 111.722 37 115.916 37C120.102 37 123.924 37.8278 127.375 39.4674C130.826 41.107 133.787 43.3735 136.266 46.2588C138.745 49.1281 140.66 52.4233 141.996 56.1445C143.332 59.8658 144 63.7879 144 67.9351ZM100.73 61.7866H130.611C130.433 59.5121 129.654 57.4466 128.28 55.5739C126.9 53.7173 125.126 52.2144 122.952 51.0972C120.784 49.9559 118.417 49.3933 115.856 49.3933C113.645 49.3933 111.529 49.8354 109.503 50.7114C107.484 51.5875 105.703 52.9377 104.159 54.7622C102.623 56.5866 101.48 58.9254 100.73 61.7866Z" fill="white"/>
<path d="M171.159 101C167.335 101 163.82 100.185 160.6 98.5557C157.395 96.9182 154.63 94.6417 152.318 91.7181C149.998 88.8026 148.198 85.4237 146.916 81.5736C145.641 77.7155 145 73.5938 145 69.1925C145 64.7912 145.619 60.6774 146.873 56.8433C148.119 53.0091 149.905 49.6303 152.231 46.7147C154.565 43.7992 157.345 41.5146 160.572 39.8612C163.806 38.2077 167.385 37.3849 171.318 37.3849C174.263 37.3849 176.943 37.9601 179.341 39.1103C181.747 40.2526 183.821 41.7143 185.55 43.4876C187.285 45.2609 188.632 47.0981 189.583 48.9992L189.324 42.7528V17H202V99.1948H189.9V89.0981C188.841 91.1989 187.422 93.148 185.636 94.9612C183.85 96.7744 181.74 98.2282 179.312 99.3385C176.892 100.449 174.177 101 171.159 101ZM173.478 87.9798C175.682 87.9798 177.757 87.5086 179.687 86.558C181.617 85.5995 183.303 84.2735 184.757 82.5641C186.212 80.8547 187.357 78.8498 188.186 76.5732C189.007 74.2967 189.425 71.8364 189.425 69.1925C189.425 66.5405 189.021 64.0882 188.215 61.8437C187.408 59.5831 186.277 57.6021 184.815 55.8847C183.36 54.1754 181.675 52.8414 179.745 51.8908C177.814 50.9323 175.726 50.453 173.478 50.453C170.489 50.453 167.788 51.2598 165.368 52.8813C162.948 54.4949 161.04 56.6995 159.635 59.4952C158.231 62.299 157.532 65.5261 157.532 69.1925C157.532 72.7311 158.209 75.9182 159.578 78.7619C160.953 81.6056 162.84 83.8501 165.239 85.5036C167.637 87.1571 170.389 87.9798 173.478 87.9798Z" fill="#50C878"/>
<path d="M229.456 101C225.809 101 222.434 100.188 219.326 98.5487C216.225 96.901 213.526 94.6024 211.224 91.6608C208.929 88.7272 207.151 85.3275 205.885 81.4616C204.626 77.5797 204 73.4325 204 68.996C204 64.5755 204.64 60.4364 205.914 56.5786C207.202 52.7207 208.986 49.321 211.281 46.3874C213.577 43.4538 216.268 41.1552 219.354 39.4835C222.441 37.8278 225.794 37 229.399 37C233.81 37 237.738 38.0689 241.17 40.1988C244.602 42.3286 247.178 45.2703 248.898 49.0316V38.8084H261V99.1836H248.898V89.0327C247.149 92.794 244.566 95.7276 241.141 97.8334C237.724 99.9471 233.831 101 229.456 101ZM232.493 87.8592C234.709 87.8592 236.781 87.377 238.709 86.4286C240.638 85.4641 242.329 84.1219 243.775 82.4261C245.235 80.7222 246.365 78.721 247.171 76.4223C247.977 74.1398 248.38 71.6563 248.38 68.996C248.38 66.3759 247.97 63.9245 247.142 61.642C246.315 59.3514 245.185 57.3421 243.746 55.6141C242.314 53.8861 240.638 52.5439 238.709 51.5955C236.781 50.631 234.709 50.1488 232.493 50.1488C229.586 50.1488 226.931 50.9284 224.535 52.4876C222.139 54.0629 220.218 56.249 218.779 59.0861C217.34 61.8992 216.62 65.2105 216.62 68.996C216.62 72.9101 217.347 76.2777 218.793 79.0987C220.254 81.9198 222.189 84.0818 224.607 85.5847C227.032 87.1037 229.665 87.8592 232.493 87.8592Z" fill="#50C878"/>
<path d="M216.993 131C215.929 131 215.017 130.839 214.257 130.527C213.504 130.197 212.889 129.775 212.404 129.242C211.919 128.701 211.565 128.101 211.333 127.451C211.109 126.783 211 126.124 211 125.456H213.692C213.692 125.989 213.815 126.47 214.069 126.91C214.329 127.349 214.706 127.696 215.198 127.958C215.69 128.22 216.283 128.346 216.978 128.346C219.171 128.346 220.264 127.493 220.264 125.777C220.264 125.245 220.127 124.823 219.844 124.493C219.562 124.155 219.171 123.885 218.657 123.682C218.158 123.47 217.565 123.285 216.877 123.141C216.385 123.014 215.878 122.87 215.357 122.701C214.843 122.532 214.351 122.321 213.881 122.076C213.41 121.814 212.983 121.501 212.607 121.13C212.23 120.758 211.934 120.31 211.709 119.794C211.485 119.279 211.376 118.654 211.376 117.935C211.376 116.997 211.572 116.161 211.955 115.417C212.339 114.673 212.94 114.09 213.75 113.659C214.568 113.22 215.618 113 216.891 113C218.115 113 219.142 113.211 219.96 113.642C220.778 114.073 221.4 114.673 221.813 115.451C222.226 116.228 222.435 117.132 222.435 118.155H219.743C219.743 117.715 219.642 117.318 219.439 116.955C219.236 116.583 218.925 116.287 218.498 116.076C218.071 115.865 217.528 115.755 216.862 115.755C216.305 115.755 215.842 115.814 215.473 115.941C215.118 116.068 214.836 116.237 214.633 116.448C214.431 116.651 214.286 116.887 214.199 117.158C214.112 117.42 214.069 117.682 214.069 117.952C214.069 118.662 214.38 119.211 214.995 119.592C215.61 119.972 216.537 120.285 217.774 120.521C218.448 120.656 219.099 120.851 219.729 121.113C220.358 121.358 220.908 121.687 221.393 122.093C221.885 122.49 222.276 122.989 222.566 123.597C222.855 124.197 223 124.924 223 125.794C223 126.91 222.747 127.856 222.247 128.634C221.755 129.403 221.06 129.986 220.163 130.392C219.265 130.797 218.209 131 216.993 131Z" fill="black"/>
<path d="M241.792 129H239.208V116.446H235V114H246V116.446H241.792V129Z" fill="black"/>
<path d="M263.508 112.285C263.127 112.285 262.812 112.172 262.57 111.954C262.336 111.736 262.219 111.466 262.219 111.142C262.219 110.834 262.336 110.564 262.57 110.346C262.812 110.113 263.127 110 263.508 110C263.889 110 264.196 110.113 264.431 110.346C264.665 110.564 264.782 110.834 264.782 111.142C264.782 111.466 264.665 111.736 264.431 111.954C264.196 112.172 263.889 112.285 263.508 112.285ZM267.463 112.285C267.089 112.285 266.789 112.172 266.555 111.954C266.32 111.736 266.203 111.466 266.203 111.142C266.203 110.834 266.32 110.564 266.555 110.346C266.789 110.113 267.089 110 267.463 110C267.851 110 268.166 110.113 268.4 110.346C268.642 110.564 268.767 110.834 268.767 111.142C268.767 111.466 268.642 111.736 268.4 111.954C268.166 112.172 267.851 112.285 267.463 112.285ZM273 129H270.114L268.928 126.039H262.058L260.886 129H258L264.196 113.683H266.789L273 129ZM265.397 117.666L262.995 123.694H267.99L265.588 117.666L265.515 117.305H265.485L265.397 117.666Z" fill="black"/>
<path d="M290.498 129H285V114H290.456C291.597 114 292.627 114.184 293.546 114.545C294.472 114.899 295.265 115.407 295.926 116.063C296.594 116.719 297.102 117.514 297.457 118.435C297.819 119.349 298 120.365 298 121.485C298 122.612 297.819 123.644 297.457 124.565C297.102 125.486 296.594 126.281 295.926 126.937C295.265 127.593 294.479 128.109 293.56 128.47C292.641 128.823 291.618 129 290.498 129ZM287.561 116.431V126.554H290.414C291.444 126.554 292.328 126.355 293.073 125.95C293.817 125.537 294.388 124.955 294.785 124.211C295.181 123.452 295.383 122.561 295.383 121.529C295.383 120.505 295.188 119.614 294.799 118.848C294.409 118.082 293.845 117.485 293.101 117.065C292.356 116.645 291.451 116.431 290.387 116.431H287.561Z" fill="black"/>
<path d="M47.8 19.6538V25.5769L58 15H24L34.9933 26V19.6538H47.8Z" fill="black"/>
<path d="M8.66717e-06 9H82V15H0V12L8.66717e-06 9Z" fill="black"/>
<path d="M1.68735e-05 0H82V6H4.33359e-06V3L1.68735e-05 0Z" fill="black"/>
<path d="M34 18H48V97H34V18Z" fill="black"/>
<path d="M69.9194 97H57V38H69.3933V48.6737C70.6721 45.43 72.5574 42.8381 75.0492 40.906C77.541 38.9739 80.5662 38 84.1249 38H90V49.9461H84.8118C81.8596 49.9461 79.2655 50.7079 77.0221 52.2316C74.7788 53.7632 73.0396 55.9859 71.7901 58.8998C70.5405 61.8058 69.9194 65.3637 69.9194 69.5578V97Z" fill="white"/>
<path d="M144 67.9351C144 68.6906 143.978 69.3978 143.941 70.0569C143.911 70.732 143.837 71.6322 143.733 72.7574H100.181C100.641 76.0526 101.606 78.8576 103.076 81.1723C104.538 83.479 106.356 85.2391 108.523 86.4768C110.698 87.7065 113.073 88.3254 115.634 88.3254C118.959 88.3254 121.645 87.6101 123.709 86.1875C125.772 84.7488 127.279 82.7637 128.221 80.2239H142.545C141.848 82.9244 140.72 85.5284 139.146 88.036C137.573 90.5436 135.643 92.7619 133.372 94.7069C131.093 96.6358 128.481 98.1629 125.534 99.3042C122.588 100.437 119.382 101 115.916 101C111.722 101 107.855 100.172 104.323 98.5085C100.797 96.8528 97.7469 94.5542 95.1641 91.6206C92.5812 88.6871 90.5699 85.2793 89.1375 81.3973C87.7125 77.5154 87 73.3843 87 68.996C87 64.5755 87.7125 60.4364 89.1375 56.5786C90.5699 52.7207 92.5812 49.321 95.1641 46.3874C97.7469 43.4538 100.797 41.1552 104.323 39.4835C107.855 37.8278 111.722 37 115.916 37C120.102 37 123.924 37.8278 127.375 39.4674C130.826 41.107 133.787 43.3735 136.266 46.2588C138.745 49.1281 140.66 52.4233 141.996 56.1445C143.332 59.8658 144 63.7879 144 67.9351ZM100.73 61.7866H130.611C130.433 59.5121 129.654 57.4466 128.28 55.5739C126.9 53.7173 125.126 52.2144 122.952 51.0972C120.784 49.9559 118.417 49.3933 115.856 49.3933C113.645 49.3933 111.529 49.8354 109.503 50.7114C107.484 51.5875 105.703 52.9377 104.159 54.7622C102.623 56.5866 101.48 58.9254 100.73 61.7866Z" fill="white"/>
<path d="M171.159 101C167.335 101 163.82 100.185 160.6 98.5557C157.395 96.9182 154.63 94.6417 152.318 91.7181C149.998 88.8026 148.198 85.4237 146.916 81.5736C145.641 77.7155 145 73.5938 145 69.1925C145 64.7912 145.619 60.6774 146.873 56.8433C148.119 53.0091 149.905 49.6303 152.231 46.7147C154.565 43.7992 157.345 41.5146 160.572 39.8612C163.806 38.2077 167.385 37.3849 171.318 37.3849C174.263 37.3849 176.943 37.9601 179.341 39.1103C181.747 40.2526 183.821 41.7143 185.55 43.4876C187.285 45.2609 188.632 47.0981 189.583 48.9992L189.324 42.7528V17H202V99.1948H189.9V89.0981C188.841 91.1989 187.422 93.148 185.636 94.9612C183.85 96.7744 181.74 98.2282 179.312 99.3385C176.892 100.449 174.177 101 171.159 101ZM173.478 87.9798C175.682 87.9798 177.757 87.5086 179.687 86.558C181.617 85.5995 183.303 84.2735 184.757 82.5641C186.212 80.8547 187.357 78.8498 188.186 76.5732C189.007 74.2967 189.425 71.8364 189.425 69.1925C189.425 66.5405 189.021 64.0882 188.215 61.8437C187.408 59.5831 186.277 57.6021 184.815 55.8847C183.36 54.1754 181.675 52.8414 179.745 51.8908C177.814 50.9323 175.726 50.453 173.478 50.453C170.489 50.453 167.788 51.2598 165.368 52.8813C162.948 54.4949 161.04 56.6995 159.635 59.4952C158.231 62.299 157.532 65.5261 157.532 69.1925C157.532 72.7311 158.209 75.9182 159.578 78.7619C160.953 81.6056 162.84 83.8501 165.239 85.5036C167.637 87.1571 170.389 87.9798 173.478 87.9798Z" fill="#50C878"/>
<path d="M229.456 101C225.809 101 222.434 100.188 219.326 98.5487C216.225 96.901 213.526 94.6024 211.224 91.6608C208.929 88.7272 207.151 85.3275 205.885 81.4616C204.626 77.5797 204 73.4325 204 68.996C204 64.5755 204.64 60.4364 205.914 56.5786C207.202 52.7207 208.986 49.321 211.281 46.3874C213.577 43.4538 216.268 41.1552 219.354 39.4835C222.441 37.8278 225.794 37 229.399 37C233.81 37 237.738 38.0689 241.17 40.1988C244.602 42.3286 247.178 45.2703 248.898 49.0316V38.8084H261V99.1836H248.898V89.0327C247.149 92.794 244.566 95.7276 241.141 97.8334C237.724 99.9471 233.831 101 229.456 101ZM232.493 87.8592C234.709 87.8592 236.781 87.377 238.709 86.4286C240.638 85.4641 242.329 84.1219 243.775 82.4261C245.235 80.7222 246.365 78.721 247.171 76.4223C247.977 74.1398 248.38 71.6563 248.38 68.996C248.38 66.3759 247.97 63.9245 247.142 61.642C246.315 59.3514 245.185 57.3421 243.746 55.6141C242.314 53.8861 240.638 52.5439 238.709 51.5955C236.781 50.631 234.709 50.1488 232.493 50.1488C229.586 50.1488 226.931 50.9284 224.535 52.4876C222.139 54.0629 220.218 56.249 218.779 59.0861C217.34 61.8992 216.62 65.2105 216.62 68.996C216.62 72.9101 217.347 76.2777 218.793 79.0987C220.254 81.9198 222.189 84.0818 224.607 85.5847C227.032 87.1037 229.665 87.8592 232.493 87.8592Z" fill="#50C878"/>
<path d="M216.993 131C215.929 131 215.017 130.839 214.257 130.527C213.504 130.197 212.889 129.775 212.404 129.242C211.919 128.701 211.565 128.101 211.333 127.451C211.109 126.783 211 126.124 211 125.456H213.692C213.692 125.989 213.815 126.47 214.069 126.91C214.329 127.349 214.706 127.696 215.198 127.958C215.69 128.22 216.283 128.346 216.978 128.346C219.171 128.346 220.264 127.493 220.264 125.777C220.264 125.245 220.127 124.823 219.844 124.493C219.562 124.155 219.171 123.885 218.657 123.682C218.158 123.47 217.565 123.285 216.877 123.141C216.385 123.014 215.878 122.87 215.357 122.701C214.843 122.532 214.351 122.321 213.881 122.076C213.41 121.814 212.983 121.501 212.607 121.13C212.23 120.758 211.934 120.31 211.709 119.794C211.485 119.279 211.376 118.654 211.376 117.935C211.376 116.997 211.572 116.161 211.955 115.417C212.339 114.673 212.94 114.09 213.75 113.659C214.568 113.22 215.618 113 216.891 113C218.115 113 219.142 113.211 219.96 113.642C220.778 114.073 221.4 114.673 221.813 115.451C222.226 116.228 222.435 117.132 222.435 118.155H219.743C219.743 117.715 219.642 117.318 219.439 116.955C219.236 116.583 218.925 116.287 218.498 116.076C218.071 115.865 217.528 115.755 216.862 115.755C216.305 115.755 215.842 115.814 215.473 115.941C215.118 116.068 214.836 116.237 214.633 116.448C214.431 116.651 214.286 116.887 214.199 117.158C214.112 117.42 214.069 117.682 214.069 117.952C214.069 118.662 214.38 119.211 214.995 119.592C215.61 119.972 216.537 120.285 217.774 120.521C218.448 120.656 219.099 120.851 219.729 121.113C220.358 121.358 220.908 121.687 221.393 122.093C221.885 122.49 222.276 122.989 222.566 123.597C222.855 124.197 223 124.924 223 125.794C223 126.91 222.747 127.856 222.247 128.634C221.755 129.403 221.06 129.986 220.163 130.392C219.265 130.797 218.209 131 216.993 131Z" fill="black"/>
<path d="M241.792 129H239.208V116.446H235V114H246V116.446H241.792V129Z" fill="black"/>
<path d="M263.508 112.285C263.127 112.285 262.812 112.172 262.57 111.954C262.336 111.736 262.219 111.466 262.219 111.142C262.219 110.834 262.336 110.564 262.57 110.346C262.812 110.113 263.127 110 263.508 110C263.889 110 264.196 110.113 264.431 110.346C264.665 110.564 264.782 110.834 264.782 111.142C264.782 111.466 264.665 111.736 264.431 111.954C264.196 112.172 263.889 112.285 263.508 112.285ZM267.463 112.285C267.089 112.285 266.789 112.172 266.555 111.954C266.32 111.736 266.203 111.466 266.203 111.142C266.203 110.834 266.32 110.564 266.555 110.346C266.789 110.113 267.089 110 267.463 110C267.851 110 268.166 110.113 268.4 110.346C268.642 110.564 268.767 110.834 268.767 111.142C268.767 111.466 268.642 111.736 268.4 111.954C268.166 112.172 267.851 112.285 267.463 112.285ZM273 129H270.114L268.928 126.039H262.058L260.886 129H258L264.196 113.683H266.789L273 129ZM265.397 117.666L262.995 123.694H267.99L265.588 117.666L265.515 117.305H265.485L265.397 117.666Z" fill="black"/>
<path d="M290.498 129H285V114H290.456C291.597 114 292.627 114.184 293.546 114.545C294.472 114.899 295.265 115.407 295.926 116.063C296.594 116.719 297.102 117.514 297.457 118.435C297.819 119.349 298 120.365 298 121.485C298 122.612 297.819 123.644 297.457 124.565C297.102 125.486 296.594 126.281 295.926 126.937C295.265 127.593 294.479 128.109 293.56 128.47C292.641 128.823 291.618 129 290.498 129ZM287.561 116.431V126.554H290.414C291.444 126.554 292.328 126.355 293.073 125.95C293.817 125.537 294.388 124.955 294.785 124.211C295.181 123.452 295.383 122.561 295.383 121.529C295.383 120.505 295.188 119.614 294.799 118.848C294.409 118.082 293.845 117.485 293.101 117.065C292.356 116.645 291.451 116.431 290.387 116.431H287.561Z" fill="black"/>
<path d="M47.8 19.6538V25.5769L58 15H24L34.9933 26V19.6538H47.8Z" fill="black"/>
<path d="M8.66717e-06 9H82V15H0V12L8.66717e-06 9Z" fill="black"/>
<path d="M1.68735e-05 0H82V6H4.33359e-06V3L1.68735e-05 0Z" fill="black"/>
<path d="M34 18H48V97H34V18Z" fill="black"/>
<path d="M69.9194 97H57V38H69.3933V48.6737C70.6721 45.43 72.5574 42.8381 75.0492 40.906C77.541 38.9739 80.5662 38 84.1249 38H90V49.9461H84.8118C81.8596 49.9461 79.2655 50.7079 77.0221 52.2316C74.7788 53.7632 73.0396 55.9859 71.7901 58.8998C70.5405 61.8058 69.9194 65.3637 69.9194 69.5578V97Z" fill="white"/>
<path d="M144 67.9351C144 68.6906 143.978 69.3978 143.941 70.0569C143.911 70.732 143.837 71.6322 143.733 72.7574H100.181C100.641 76.0526 101.606 78.8576 103.076 81.1723C104.538 83.479 106.356 85.2391 108.523 86.4768C110.698 87.7065 113.073 88.3254 115.634 88.3254C118.959 88.3254 121.645 87.6101 123.709 86.1875C125.772 84.7488 127.279 82.7637 128.221 80.2239H142.545C141.848 82.9244 140.72 85.5284 139.146 88.036C137.573 90.5436 135.643 92.7619 133.372 94.7069C131.093 96.6358 128.481 98.1629 125.534 99.3042C122.588 100.437 119.382 101 115.916 101C111.722 101 107.855 100.172 104.323 98.5085C100.797 96.8528 97.7469 94.5542 95.1641 91.6206C92.5812 88.6871 90.5699 85.2793 89.1375 81.3973C87.7125 77.5154 87 73.3843 87 68.996C87 64.5755 87.7125 60.4364 89.1375 56.5786C90.5699 52.7207 92.5812 49.321 95.1641 46.3874C97.7469 43.4538 100.797 41.1552 104.323 39.4835C107.855 37.8278 111.722 37 115.916 37C120.102 37 123.924 37.8278 127.375 39.4674C130.826 41.107 133.787 43.3735 136.266 46.2588C138.745 49.1281 140.66 52.4233 141.996 56.1445C143.332 59.8658 144 63.7879 144 67.9351ZM100.73 61.7866H130.611C130.433 59.5121 129.654 57.4466 128.28 55.5739C126.9 53.7173 125.126 52.2144 122.952 51.0972C120.784 49.9559 118.417 49.3933 115.856 49.3933C113.645 49.3933 111.529 49.8354 109.503 50.7114C107.484 51.5875 105.703 52.9377 104.159 54.7622C102.623 56.5866 101.48 58.9254 100.73 61.7866Z" fill="white"/>
<path d="M171.159 101C167.335 101 163.82 100.185 160.6 98.5557C157.395 96.9182 154.63 94.6417 152.318 91.7181C149.998 88.8026 148.198 85.4237 146.916 81.5736C145.641 77.7155 145 73.5938 145 69.1925C145 64.7912 145.619 60.6774 146.873 56.8433C148.119 53.0091 149.905 49.6303 152.231 46.7147C154.565 43.7992 157.345 41.5146 160.572 39.8612C163.806 38.2077 167.385 37.3849 171.318 37.3849C174.263 37.3849 176.943 37.9601 179.341 39.1103C181.747 40.2526 183.821 41.7143 185.55 43.4876C187.285 45.2609 188.632 47.0981 189.583 48.9992L189.324 42.7528V17H202V99.1948H189.9V89.0981C188.841 91.1989 187.422 93.148 185.636 94.9612C183.85 96.7744 181.74 98.2282 179.312 99.3385C176.892 100.449 174.177 101 171.159 101ZM173.478 87.9798C175.682 87.9798 177.757 87.5086 179.687 86.558C181.617 85.5995 183.303 84.2735 184.757 82.5641C186.212 80.8547 187.357 78.8498 188.186 76.5732C189.007 74.2967 189.425 71.8364 189.425 69.1925C189.425 66.5405 189.021 64.0882 188.215 61.8437C187.408 59.5831 186.277 57.6021 184.815 55.8847C183.36 54.1754 181.675 52.8414 179.745 51.8908C177.814 50.9323 175.726 50.453 173.478 50.453C170.489 50.453 167.788 51.2598 165.368 52.8813C162.948 54.4949 161.04 56.6995 159.635 59.4952C158.231 62.299 157.532 65.5261 157.532 69.1925C157.532 72.7311 158.209 75.9182 159.578 78.7619C160.953 81.6056 162.84 83.8501 165.239 85.5036C167.637 87.1571 170.389 87.9798 173.478 87.9798Z" fill="#50C878"/>
<path d="M229.456 101C225.809 101 222.434 100.188 219.326 98.5487C216.225 96.901 213.526 94.6024 211.224 91.6608C208.929 88.7272 207.151 85.3275 205.885 81.4616C204.626 77.5797 204 73.4325 204 68.996C204 64.5755 204.64 60.4364 205.914 56.5786C207.202 52.7207 208.986 49.321 211.281 46.3874C213.577 43.4538 216.268 41.1552 219.354 39.4835C222.441 37.8278 225.794 37 229.399 37C233.81 37 237.738 38.0689 241.17 40.1988C244.602 42.3286 247.178 45.2703 248.898 49.0316V38.8084H261V99.1836H248.898V89.0327C247.149 92.794 244.566 95.7276 241.141 97.8334C237.724 99.9471 233.831 101 229.456 101ZM232.493 87.8592C234.709 87.8592 236.781 87.377 238.709 86.4286C240.638 85.4641 242.329 84.1219 243.775 82.4261C245.235 80.7222 246.365 78.721 247.171 76.4223C247.977 74.1398 248.38 71.6563 248.38 68.996C248.38 66.3759 247.97 63.9245 247.142 61.642C246.315 59.3514 245.185 57.3421 243.746 55.6141C242.314 53.8861 240.638 52.5439 238.709 51.5955C236.781 50.631 234.709 50.1488 232.493 50.1488C229.586 50.1488 226.931 50.9284 224.535 52.4876C222.139 54.0629 220.218 56.249 218.779 59.0861C217.34 61.8992 216.62 65.2105 216.62 68.996C216.62 72.9101 217.347 76.2777 218.793 79.0987C220.254 81.9198 222.189 84.0818 224.607 85.5847C227.032 87.1037 229.665 87.8592 232.493 87.8592Z" fill="#50C878"/>
<path d="M216.993 131C215.929 131 215.017 130.839 214.257 130.527C213.504 130.197 212.889 129.775 212.404 129.242C211.919 128.701 211.565 128.101 211.333 127.451C211.109 126.783 211 126.124 211 125.456H213.692C213.692 125.989 213.815 126.47 214.069 126.91C214.329 127.349 214.706 127.696 215.198 127.958C215.69 128.22 216.283 128.346 216.978 128.346C219.171 128.346 220.264 127.493 220.264 125.777C220.264 125.245 220.127 124.823 219.844 124.493C219.562 124.155 219.171 123.885 218.657 123.682C218.158 123.47 217.565 123.285 216.877 123.141C216.385 123.014 215.878 122.87 215.357 122.701C214.843 122.532 214.351 122.321 213.881 122.076C213.41 121.814 212.983 121.501 212.607 121.13C212.23 120.758 211.934 120.31 211.709 119.794C211.485 119.279 211.376 118.654 211.376 117.935C211.376 116.997 211.572 116.161 211.955 115.417C212.339 114.673 212.94 114.09 213.75 113.659C214.568 113.22 215.618 113 216.891 113C218.115 113 219.142 113.211 219.96 113.642C220.778 114.073 221.4 114.673 221.813 115.451C222.226 116.228 222.435 117.132 222.435 118.155H219.743C219.743 117.715 219.642 117.318 219.439 116.955C219.236 116.583 218.925 116.287 218.498 116.076C218.071 115.865 217.528 115.755 216.862 115.755C216.305 115.755 215.842 115.814 215.473 115.941C215.118 116.068 214.836 116.237 214.633 116.448C214.431 116.651 214.286 116.887 214.199 117.158C214.112 117.42 214.069 117.682 214.069 117.952C214.069 118.662 214.38 119.211 214.995 119.592C215.61 119.972 216.537 120.285 217.774 120.521C218.448 120.656 219.099 120.851 219.729 121.113C220.358 121.358 220.908 121.687 221.393 122.093C221.885 122.49 222.276 122.989 222.566 123.597C222.855 124.197 223 124.924 223 125.794C223 126.91 222.747 127.856 222.247 128.634C221.755 129.403 221.06 129.986 220.163 130.392C219.265 130.797 218.209 131 216.993 131Z" fill="black"/>
<path d="M241.792 129H239.208V116.446H235V114H246V116.446H241.792V129Z" fill="black"/>
<path d="M263.508 112.285C263.127 112.285 262.812 112.172 262.57 111.954C262.336 111.736 262.219 111.466 262.219 111.142C262.219 110.834 262.336 110.564 262.57 110.346C262.812 110.113 263.127 110 263.508 110C263.889 110 264.196 110.113 264.431 110.346C264.665 110.564 264.782 110.834 264.782 111.142C264.782 111.466 264.665 111.736 264.431 111.954C264.196 112.172 263.889 112.285 263.508 112.285ZM267.463 112.285C267.089 112.285 266.789 112.172 266.555 111.954C266.32 111.736 266.203 111.466 266.203 111.142C266.203 110.834 266.32 110.564 266.555 110.346C266.789 110.113 267.089 110 267.463 110C267.851 110 268.166 110.113 268.4 110.346C268.642 110.564 268.767 110.834 268.767 111.142C268.767 111.466 268.642 111.736 268.4 111.954C268.166 112.172 267.851 112.285 267.463 112.285ZM273 129H270.114L268.928 126.039H262.058L260.886 129H258L264.196 113.683H266.789L273 129ZM265.397 117.666L262.995 123.694H267.99L265.588 117.666L265.515 117.305H265.485L265.397 117.666Z" fill="black"/>
<path d="M290.498 129H285V114H290.456C291.597 114 292.627 114.184 293.546 114.545C294.472 114.899 295.265 115.407 295.926 116.063C296.594 116.719 297.102 117.514 297.457 118.435C297.819 119.349 298 120.365 298 121.485C298 122.612 297.819 123.644 297.457 124.565C297.102 125.486 296.594 126.281 295.926 126.937C295.265 127.593 294.479 128.109 293.56 128.47C292.641 128.823 291.618 129 290.498 129ZM287.561 116.431V126.554H290.414C291.444 126.554 292.328 126.355 293.073 125.95C293.817 125.537 294.388 124.955 294.785 124.211C295.181 123.452 295.383 122.561 295.383 121.529C295.383 120.505 295.188 119.614 294.799 118.848C294.409 118.082 293.845 117.485 293.101 117.065C292.356 116.645 291.451 116.431 290.387 116.431H287.561Z" fill="black"/>
<path d="M47.8 19.6538V25.5769L58 15H24L34.9933 26V19.6538H47.8Z" fill="black"/>
<path d="M8.66717e-06 9H82V15H0V12L8.66717e-06 9Z" fill="black"/>
<path d="M1.68735e-05 0H82V6H4.33359e-06V3L1.68735e-05 0Z" fill="black"/>
<path d="M34 18H48V97H34V18Z" fill="black"/>
<path d="M69.9194 97H57V38H69.3933V48.6737C70.6721 45.43 72.5574 42.8381 75.0492 40.906C77.541 38.9739 80.5662 38 84.1249 38H90V49.9461H84.8118C81.8596 49.9461 79.2655 50.7079 77.0221 52.2316C74.7788 53.7632 73.0396 55.9859 71.7901 58.8998C70.5405 61.8058 69.9194 65.3637 69.9194 69.5578V97Z" fill="white"/>
<path d="M144 67.9351C144 68.6906 143.978 69.3978 143.941 70.0569C143.911 70.732 143.837 71.6322 143.733 72.7574H100.181C100.641 76.0526 101.606 78.8576 103.076 81.1723C104.538 83.479 106.356 85.2391 108.523 86.4768C110.698 87.7065 113.073 88.3254 115.634 88.3254C118.959 88.3254 121.645 87.6101 123.709 86.1875C125.772 84.7488 127.279 82.7637 128.221 80.2239H142.545C141.848 82.9244 140.72 85.5284 139.146 88.036C137.573 90.5436 135.643 92.7619 133.372 94.7069C131.093 96.6358 128.481 98.1629 125.534 99.3042C122.588 100.437 119.382 101 115.916 101C111.722 101 107.855 100.172 104.323 98.5085C100.797 96.8528 97.7469 94.5542 95.1641 91.6206C92.5812 88.6871 90.5699 85.2793 89.1375 81.3973C87.7125 77.5154 87 73.3843 87 68.996C87 64.5755 87.7125 60.4364 89.1375 56.5786C90.5699 52.7207 92.5812 49.321 95.1641 46.3874C97.7469 43.4538 100.797 41.1552 104.323 39.4835C107.855 37.8278 111.722 37 115.916 37C120.102 37 123.924 37.8278 127.375 39.4674C130.826 41.107 133.787 43.3735 136.266 46.2588C138.745 49.1281 140.66 52.4233 141.996 56.1445C143.332 59.8658 144 63.7879 144 67.9351ZM100.73 61.7866H130.611C130.433 59.5121 129.654 57.4466 128.28 55.5739C126.9 53.7173 125.126 52.2144 122.952 51.0972C120.784 49.9559 118.417 49.3933 115.856 49.3933C113.645 49.3933 111.529 49.8354 109.503 50.7114C107.484 51.5875 105.703 52.9377 104.159 54.7622C102.623 56.5866 101.48 58.9254 100.73 61.7866Z" fill="white"/>
<path d="M171.159 101C167.335 101 163.82 100.185 160.6 98.5557C157.395 96.9182 154.63 94.6417 152.318 91.7181C149.998 88.8026 148.198 85.4237 146.916 81.5736C145.641 77.7155 145 73.5938 145 69.1925C145 64.7912 145.619 60.6774 146.873 56.8433C148.119 53.0091 149.905 49.6303 152.231 46.7147C154.565 43.7992 157.345 41.5146 160.572 39.8612C163.806 38.2077 167.385 37.3849 171.318 37.3849C174.263 37.3849 176.943 37.9601 179.341 39.1103C181.747 40.2526 183.821 41.7143 185.55 43.4876C187.285 45.2609 188.632 47.0981 189.583 48.9992L189.324 42.7528V17H202V99.1948H189.9V89.0981C188.841 91.1989 187.422 93.148 185.636 94.9612C183.85 96.7744 181.74 98.2282 179.312 99.3385C176.892 100.449 174.177 101 171.159 101ZM173.478 87.9798C175.682 87.9798 177.757 87.5086 179.687 86.558C181.617 85.5995 183.303 84.2735 184.757 82.5641C186.212 80.8547 187.357 78.8498 188.186 76.5732C189.007 74.2967 189.425 71.8364 189.425 69.1925C189.425 66.5405 189.021 64.0882 188.215 61.8437C187.408 59.5831 186.277 57.6021 184.815 55.8847C183.36 54.1754 181.675 52.8414 179.745 51.8908C177.814 50.9323 175.726 50.453 173.478 50.453C170.489 50.453 167.788 51.2598 165.368 52.8813C162.948 54.4949 161.04 56.6995 159.635 59.4952C158.231 62.299 157.532 65.5261 157.532 69.1925C157.532 72.7311 158.209 75.9182 159.578 78.7619C160.953 81.6056 162.84 83.8501 165.239 85.5036C167.637 87.1571 170.389 87.9798 173.478 87.9798Z" fill="#50C878"/>
<path d="M229.456 101C225.809 101 222.434 100.188 219.326 98.5487C216.225 96.901 213.526 94.6024 211.224 91.6608C208.929 88.7272 207.151 85.3275 205.885 81.4616C204.626 77.5797 204 73.4325 204 68.996C204 64.5755 204.64 60.4364 205.914 56.5786C207.202 52.7207 208.986 49.321 211.281 46.3874C213.577 43.4538 216.268 41.1552 219.354 39.4835C222.441 37.8278 225.794 37 229.399 37C233.81 37 237.738 38.0689 241.17 40.1988C244.602 42.3286 247.178 45.2703 248.898 49.0316V38.8084H261V99.1836H248.898V89.0327C247.149 92.794 244.566 95.7276 241.141 97.8334C237.724 99.9471 233.831 101 229.456 101ZM232.493 87.8592C234.709 87.8592 236.781 87.377 238.709 86.4286C240.638 85.4641 242.329 84.1219 243.775 82.4261C245.235 80.7222 246.365 78.721 247.171 76.4223C247.977 74.1398 248.38 71.6563 248.38 68.996C248.38 66.3759 247.97 63.9245 247.142 61.642C246.315 59.3514 245.185 57.3421 243.746 55.6141C242.314 53.8861 240.638 52.5439 238.709 51.5955C236.781 50.631 234.709 50.1488 232.493 50.1488C229.586 50.1488 226.931 50.9284 224.535 52.4876C222.139 54.0629 220.218 56.249 218.779 59.0861C217.34 61.8992 216.62 65.2105 216.62 68.996C216.62 72.9101 217.347 76.2777 218.793 79.0987C220.254 81.9198 222.189 84.0818 224.607 85.5847C227.032 87.1037 229.665 87.8592 232.493 87.8592Z" fill="#50C878"/>
<path d="M216.993 131C215.929 131 215.017 130.839 214.257 130.527C213.504 130.197 212.889 129.775 212.404 129.242C211.919 128.701 211.565 128.101 211.333 127.451C211.109 126.783 211 126.124 211 125.456H213.692C213.692 125.989 213.815 126.47 214.069 126.91C214.329 127.349 214.706 127.696 215.198 127.958C215.69 128.22 216.283 128.346 216.978 128.346C219.171 128.346 220.264 127.493 220.264 125.777C220.264 125.245 220.127 124.823 219.844 124.493C219.562 124.155 219.171 123.885 218.657 123.682C218.158 123.47 217.565 123.285 216.877 123.141C216.385 123.014 215.878 122.87 215.357 122.701C214.843 122.532 214.351 122.321 213.881 122.076C213.41 121.814 212.983 121.501 212.607 121.13C212.23 120.758 211.934 120.31 211.709 119.794C211.485 119.279 211.376 118.654 211.376 117.935C211.376 116.997 211.572 116.161 211.955 115.417C212.339 114.673 212.94 114.09 213.75 113.659C214.568 113.22 215.618 113 216.891 113C218.115 113 219.142 113.211 219.96 113.642C220.778 114.073 221.4 114.673 221.813 115.451C222.226 116.228 222.435 117.132 222.435 118.155H219.743C219.743 117.715 219.642 117.318 219.439 116.955C219.236 116.583 218.925 116.287 218.498 116.076C218.071 115.865 217.528 115.755 216.862 115.755C216.305 115.755 215.842 115.814 215.473 115.941C215.118 116.068 214.836 116.237 214.633 116.448C214.431 116.651 214.286 116.887 214.199 117.158C214.112 117.42 214.069 117.682 214.069 117.952C214.069 118.662 214.38 119.211 214.995 119.592C215.61 119.972 216.537 120.285 217.774 120.521C218.448 120.656 219.099 120.851 219.729 121.113C220.358 121.358 220.908 121.687 221.393 122.093C221.885 122.49 222.276 122.989 222.566 123.597C222.855 124.197 223 124.924 223 125.794C223 126.91 222.747 127.856 222.247 128.634C221.755 129.403 221.06 129.986 220.163 130.392C219.265 130.797 218.209 131 216.993 131Z" fill="black"/>
<path d="M241.792 129H239.208V116.446H235V114H246V116.446H241.792V129Z" fill="black"/>
<path d="M263.508 112.285C263.127 112.285 262.812 112.172 262.57 111.954C262.336 111.736 262.219 111.466 262.219 111.142C262.219 110.834 262.336 110.564 262.57 110.346C262.812 110.113 263.127 110 263.508 110C263.889 110 264.196 110.113 264.431 110.346C264.665 110.564 264.782 110.834 264.782 111.142C264.782 111.466 264.665 111.736 264.431 111.954C264.196 112.172 263.889 112.285 263.508 112.285ZM267.463 112.285C267.089 112.285 266.789 112.172 266.555 111.954C266.32 111.736 266.203 111.466 266.203 111.142C266.203 110.834 266.32 110.564 266.555 110.346C266.789 110.113 267.089 110 267.463 110C267.851 110 268.166 110.113 268.4 110.346C268.642 110.564 268.767 110.834 268.767 111.142C268.767 111.466 268.642 111.736 268.4 111.954C268.166 112.172 267.851 112.285 267.463 112.285ZM273 129H270.114L268.928 126.039H262.058L260.886 129H258L264.196 113.683H266.789L273 129ZM265.397 117.666L262.995 123.694H267.99L265.588 117.666L265.515 117.305H265.485L265.397 117.666Z" fill="black"/>
<path d="M290.498 129H285V114H290.456C291.597 114 292.627 114.184 293.546 114.545C294.472 114.899 295.265 115.407 295.926 116.063C296.594 116.719 297.102 117.514 297.457 118.435C297.819 119.349 298 120.365 298 121.485C298 122.612 297.819 123.644 297.457 124.565C297.102 125.486 296.594 126.281 295.926 126.937C295.265 127.593 294.479 128.109 293.56 128.47C292.641 128.823 291.618 129 290.498 129ZM287.561 116.431V126.554H290.414C291.444 126.554 292.328 126.355 293.073 125.95C293.817 125.537 294.388 124.955 294.785 124.211C295.181 123.452 295.383 122.561 295.383 121.529C295.383 120.505 295.188 119.614 294.799 118.848C294.409 118.082 293.845 117.485 293.101 117.065C292.356 116.645 291.451 116.431 290.387 116.431H287.561Z" fill="black"/>
<path d="M47.8 19.6538V25.5769L58 15H24L34.9933 26V19.6538H47.8Z" fill="black"/>
<path d="M8.66717e-06 9H82V15H0V12L8.66717e-06 9Z" fill="black"/>
<path d="M1.68735e-05 0H82V6H4.33359e-06V3L1.68735e-05 0Z" fill="black"/>
<path d="M34 18H48V97H34V18Z" fill="black"/>
<path d="M69.9194 97H57V38H69.3933V48.6737C70.6721 45.43 72.5574 42.8381 75.0492 40.906C77.541 38.9739 80.5662 38 84.1249 38H90V49.9461H84.8118C81.8596 49.9461 79.2655 50.7079 77.0221 52.2316C74.7788 53.7632 73.0396 55.9859 71.7901 58.8998C70.5405 61.8058 69.9194 65.3637 69.9194 69.5578V97Z" fill="white"/>
<path d="M144 67.9351C144 68.6906 143.978 69.3978 143.941 70.0569C143.911 70.732 143.837 71.6322 143.733 72.7574H100.181C100.641 76.0526 101.606 78.8576 103.076 81.1723C104.538 83.479 106.356 85.2391 108.523 86.4768C110.698 87.7065 113.073 88.3254 115.634 88.3254C118.959 88.3254 121.645 87.6101 123.709 86.1875C125.772 84.7488 127.279 82.7637 128.221 80.2239H142.545C141.848 82.9244 140.72 85.5284 139.146 88.036C137.573 90.5436 135.643 92.7619 133.372 94.7069C131.093 96.6358 128.481 98.1629 125.534 99.3042C122.588 100.437 119.382 101 115.916 101C111.722 101 107.855 100.172 104.323 98.5085C100.797 96.8528 97.7469 94.5542 95.1641 91.6206C92.5812 88.6871 90.5699 85.2793 89.1375 81.3973C87.7125 77.5154 87 73.3843 87 68.996C87 64.5755 87.7125 60.4364 89.1375 56.5786C90.5699 52.7207 92.5812 49.321 95.1641 46.3874C97.7469 43.4538 100.797 41.1552 104.323 39.4835C107.855 37.8278 111.722 37 115.916 37C120.102 37 123.924 37.8278 127.375 39.4674C130.826 41.107 133.787 43.3735 136.266 46.2588C138.745 49.1281 140.66 52.4233 141.996 56.1445C143.332 59.8658 144 63.7879 144 67.9351ZM100.73 61.7866H130.611C130.433 59.5121 129.654 57.4466 128.28 55.5739C126.9 53.7173 125.126 52.2144 122.952 51.0972C120.784 49.9559 118.417 49.3933 115.856 49.3933C113.645 49.3933 111.529 49.8354 109.503 50.7114C107.484 51.5875 105.703 52.9377 104.159 54.7622C102.623 56.5866 101.48 58.9254 100.73 61.7866Z" fill="white"/>
<path d="M171.159 101C167.335 101 163.82 100.185 160.6 98.5557C157.395 96.9182 154.63 94.6417 152.318 91.7181C149.998 88.8026 148.198 85.4237 146.916 81.5736C145.641 77.7155 145 73.5938 145 69.1925C145 64.7912 145.619 60.6774 146.873 56.8433C148.119 53.0091 149.905 49.6303 152.231 46.7147C154.565 43.7992 157.345 41.5146 160.572 39.8612C163.806 38.2077 167.385 37.3849 171.318 37.3849C174.263 37.3849 176.943 37.9601 179.341 39.1103C181.747 40.2526 183.821 41.7143 185.55 43.4876C187.285 45.2609 188.632 47.0981 189.583 48.9992L189.324 42.7528V17H202V99.1948H189.9V89.0981C188.841 91.1989 187.422 93.148 185.636 94.9612C183.85 96.7744 181.74 98.2282 179.312 99.3385C176.892 100.449 174.177 101 171.159 101ZM173.478 87.9798C175.682 87.9798 177.757 87.5086 179.687 86.558C181.617 85.5995 183.303 84.2735 184.757 82.5641C186.212 80.8547 187.357 78.8498 188.186 76.5732C189.007 74.2967 189.425 71.8364 189.425 69.1925C189.425 66.5405 189.021 64.0882 188.215 61.8437C187.408 59.5831 186.277 57.6021 184.815 55.8847C183.36 54.1754 181.675 52.8414 179.745 51.8908C177.814 50.9323 175.726 50.453 173.478 50.453C170.489 50.453 167.788 51.2598 165.368 52.8813C162.948 54.4949 161.04 56.6995 159.635 59.4952C158.231 62.299 157.532 65.5261 157.532 69.1925C157.532 72.7311 158.209 75.9182 159.578 78.7619C160.953 81.6056 162.84 83.8501 165.239 85.5036C167.637 87.1571 170.389 87.9798 173.478 87.9798Z" fill="#50C878"/>
<path d="M229.456 101C225.809 101 222.434 100.188 219.326 98.5487C216.225 96.901 213.526 94.6024 211.224 91.6608C208.929 88.7272 207.151 85.3275 205.885 81.4616C204.626 77.5797 204 73.4325 204 68.996C204 64.5755 204.64 60.4364 205.914 56.5786C207.202 52.7207 208.986 49.321 211.281 46.3874C213.577 43.4538 216.268 41.1552 219.354 39.4835C222.441 37.8278 225.794 37 229.399 37C233.81 37 237.738 38.0689 241.17 40.1988C244.602 42.3286 247.178 45.2703 248.898 49.0316V38.8084H261V99.1836H248.898V89.0327C247.149 92.794 244.566 95.7276 241.141 97.8334C237.724 99.9471 233.831 101 229.456 101ZM232.493 87.8592C234.709 87.8592 236.781 87.377 238.709 86.4286C240.638 85.4641 242.329 84.1219 243.775 82.4261C245.235 80.7222 246.365 78.721 247.171 76.4223C247.977 74.1398 248.38 71.6563 248.38 68.996C248.38 66.3759 247.97 63.9245 247.142 61.642C246.315 59.3514 245.185 57.3421 243.746 55.6141C242.314 53.8861 240.638 52.5439 238.709 51.5955C236.781 50.631 234.709 50.1488 232.493 50.1488C229.586 50.1488 226.931 50.9284 224.535 52.4876C222.139 54.0629 220.218 56.249 218.779 59.0861C217.34 61.8992 216.62 65.2105 216.62 68.996C216.62 72.9101 217.347 76.2777 218.793 79.0987C220.254 81.9198 222.189 84.0818 224.607 85.5847C227.032 87.1037 229.665 87.8592 232.493 87.8592Z" fill="#50C878"/>
<path d="M216.993 131C215.929 131 215.017 130.839 214.257 130.527C213.504 130.197 212.889 129.775 212.404 129.242C211.919 128.701 211.565 128.101 211.333 127.451C211.109 126.783 211 126.124 211 125.456H213.692C213.692 125.989 213.815 126.47 214.069 126.91C214.329 127.349 214.706 127.696 215.198 127.958C215.69 128.22 216.283 128.346 216.978 128.346C219.171 128.346 220.264 127.493 220.264 125.777C220.264 125.245 220.127 124.823 219.844 124.493C219.562 124.155 219.171 123.885 218.657 123.682C218.158 123.47 217.565 123.285 216.877 123.141C216.385 123.014 215.878 122.87 215.357 122.701C214.843 122.532 214.351 122.321 213.881 122.076C213.41 121.814 212.983 121.501 212.607 121.13C212.23 120.758 211.934 120.31 211.709 119.794C211.485 119.279 211.376 118.654 211.376 117.935C211.376 116.997 211.572 116.161 211.955 115.417C212.339 114.673 212.94 114.09 213.75 113.659C214.568 113.22 215.618 113 216.891 113C218.115 113 219.142 113.211 219.96 113.642C220.778 114.073 221.4 114.673 221.813 115.451C222.226 116.228 222.435 117.132 222.435 118.155H219.743C219.743 117.715 219.642 117.318 219.439 116.955C219.236 116.583 218.925 116.287 218.498 116.076C218.071 115.865 217.528 115.755 216.862 115.755C216.305 115.755 215.842 115.814 215.473 115.941C215.118 116.068 214.836 116.237 214.633 116.448C214.431 116.651 214.286 116.887 214.199 117.158C214.112 117.42 214.069 117.682 214.069 117.952C214.069 118.662 214.38 119.211 214.995 119.592C215.61 119.972 216.537 120.285 217.774 120.521C218.448 120.656 219.099 120.851 219.729 121.113C220.358 121.358 220.908 121.687 221.393 122.093C221.885 122.49 222.276 122.989 222.566 123.597C222.855 124.197 223 124.924 223 125.794C223 126.91 222.747 127.856 222.247 128.634C221.755 129.403 221.06 129.986 220.163 130.392C219.265 130.797 218.209 131 216.993 131Z" fill="black"/>
<path d="M241.792 129H239.208V116.446H235V114H246V116.446H241.792V129Z" fill="black"/>
<path d="M263.508 112.285C263.127 112.285 262.812 112.172 262.57 111.954C262.336 111.736 262.219 111.466 262.219 111.142C262.219 110.834 262.336 110.564 262.57 110.346C262.812 110.113 263.127 110 263.508 110C263.889 110 264.196 110.113 264.431 110.346C264.665 110.564 264.782 110.834 264.782 111.142C264.782 111.466 264.665 111.736 264.431 111.954C264.196 112.172 263.889 112.285 263.508 112.285ZM267.463 112.285C267.089 112.285 266.789 112.172 266.555 111.954C266.32 111.736 266.203 111.466 266.203 111.142C266.203 110.834 266.32 110.564 266.555 110.346C266.789 110.113 267.089 110 267.463 110C267.851 110 268.166 110.113 268.4 110.346C268.642 110.564 268.767 110.834 268.767 111.142C268.767 111.466 268.642 111.736 268.4 111.954C268.166 112.172 267.851 112.285 267.463 112.285ZM273 129H270.114L268.928 126.039H262.058L260.886 129H258L264.196 113.683H266.789L273 129ZM265.397 117.666L262.995 123.694H267.99L265.588 117.666L265.515 117.305H265.485L265.397 117.666Z" fill="black"/>
<path d="M290.498 129H285V114H290.456C291.597 114 292.627 114.184 293.546 114.545C294.472 114.899 295.265 115.407 295.926 116.063C296.594 116.719 297.102 117.514 297.457 118.435C297.819 119.349 298 120.365 298 121.485C298 122.612 297.819 123.644 297.457 124.565C297.102 125.486 296.594 126.281 295.926 126.937C295.265 127.593 294.479 128.109 293.56 128.47C292.641 128.823 291.618 129 290.498 129ZM287.561 116.431V126.554H290.414C291.444 126.554 292.328 126.355 293.073 125.95C293.817 125.537 294.388 124.955 294.785 124.211C295.181 123.452 295.383 122.561 295.383 121.529C295.383 120.505 295.188 119.614 294.799 118.848C294.409 118.082 293.845 117.485 293.101 117.065C292.356 116.645 291.451 116.431 290.387 116.431H287.561Z" fill="black"/>
<path d="M47.8 19.6538V25.5769L58 15H24L34.9933 26V19.6538H47.8Z" fill="black"/>
<path d="M8.66717e-06 9H82V15H0V12L8.66717e-06 9Z" fill="black"/>
<path d="M1.68735e-05 0H82V6H4.33359e-06V3L1.68735e-05 0Z" fill="black"/>
<path d="M34 18H48V97H34V18Z" fill="black"/>
<path d="M69.9194 97H57V38H69.3933V48.6737C70.6721 45.43 72.5574 42.8381 75.0492 40.906C77.541 38.9739 80.5662 38 84.1249 38H90V49.9461H84.8118C81.8596 49.9461 79.2655 50.7079 77.0221 52.2316C74.7788 53.7632 73.0396 55.9859 71.7901 58.8998C70.5405 61.8058 69.9194 65.3637 69.9194 69.5578V97Z" fill="white"/>
<path d="M144 67.9351C144 68.6906 143.978 69.3978 143.941 70.0569C143.911 70.732 143.837 71.6322 143.733 72.7574H100.181C100.641 76.0526 101.606 78.8576 103.076 81.1723C104.538 83.479 106.356 85.2391 108.523 86.4768C110.698 87.7065 113.073 88.3254 115.634 88.3254C118.959 88.3254 121.645 87.6101 123.709 86.1875C125.772 84.7488 127.279 82.7637 128.221 80.2239H142.545C141.848 82.9244 140.72 85.5284 139.146 88.036C137.573 90.5436 135.643 92.7619 133.372 94.7069C131.093 96.6358 128.481 98.1629 125.534 99.3042C122.588 100.437 119.382 101 115.916 101C111.722 101 107.855 100.172 104.323 98.5085C100.797 96.8528 97.7469 94.5542 95.1641 91.6206C92.5812 88.6871 90.5699 85.2793 89.1375 81.3973C87.7125 77.5154 87 73.3843 87 68.996C87 64.5755 87.7125 60.4364 89.1375 56.5786C90.5699 52.7207 92.5812 49.321 95.1641 46.3874C97.7469 43.4538 100.797 41.1552 104.323 39.4835C107.855 37.8278 111.722 37 115.916 37C120.102 37 123.924 37.8278 127.375 39.4674C130.826 41.107 133.787 43.3735 136.266 46.2588C138.745 49.1281 140.66 52.4233 141.996 56.1445C143.332 59.8658 144 63.7879 144 67.9351ZM100.73 61.7866H130.611C130.433 59.5121 129.654 57.4466 128.28 55.5739C126.9 53.7173 125.126 52.2144 122.952 51.0972C120.784 49.9559 118.417 49.3933 115.856 49.3933C113.645 49.3933 111.529 49.8354 109.503 50.7114C107.484 51.5875 105.703 52.9377 104.159 54.7622C102.623 56.5866 101.48 58.9254 100.73 61.7866Z" fill="white"/>
<path d="M171.159 101C167.335 101 163.82 100.185 160.6 98.5557C157.395 96.9182 154.63 94.6417 152.318 91.7181C149.998 88.8026 148.198 85.4237 146.916 81.5736C145.641 77.7155 145 73.5938 145 69.1925C145 64.7912 145.619 60.6774 146.873 56.8433C148.119 53.0091 149.905 49.6303 152.231 46.7147C154.565 43.7992 157.345 41.5146 160.572 39.8612C163.806 38.2077 167.385 37.3849 171.318 37.3849C174.263 37.3849 176.943 37.9601 179.341 39.1103C181.747 40.2526 183.821 41.7143 185.55 43.4876C187.285 45.2609 188.632 47.0981 189.583 48.9992L189.324 42.7528V17H202V99.1948H189.9V89.0981C188.841 91.1989 187.422 93.148 185.636 94.9612C183.85 96.7744 181.74 98.2282 179.312 99.3385C176.892 100.449 174.177 101 171.159 101ZM173.478 87.9798C175.682 87.9798 177.757 87.5086 179.687 86.558C181.617 85.5995 183.303 84.2735 184.757 82.5641C186.212 80.8547 187.357 78.8498 188.186 76.5732C189.007 74.2967 189.425 71.8364 189.425 69.1925C189.425 66.5405 189.021 64.0882 188.215 61.8437C187.408 59.5831 186.277 57.6021 184.815 55.8847C183.36 54.1754 181.675 52.8414 179.745 51.8908C177.814 50.9323 175.726 50.453 173.478 50.453C170.489 50.453 167.788 51.2598 165.368 52.8813C162.948 54.4949 161.04 56.6995 159.635 59.4952C158.231 62.299 157.532 65.5261 157.532 69.1925C157.532 72.7311 158.209 75.9182 159.578 78.7619C160.953 81.6056 162.84 83.8501 165.239 85.5036C167.637 87.1571 170.389 87.9798 173.478 87.9798Z" fill="#50C878"/>
<path d="M229.456 101C225.809 101 222.434 100.188 219.326 98.5487C216.225 96.901 213.526 94.6024 211.224 91.6608C208.929 88.7272 207.151 85.3275 205.885 81.4616C204.626 77.5797 204 73.4325 204 68.996C204 64.5755 204.64 60.4364 205.914 56.5786C207.202 52.7207 208.986 49.321 211.281 46.3874C213.577 43.4538 216.268 41.1552 219.354 39.4835C222.441 37.8278 225.794 37 229.399 37C233.81 37 237.738 38.0689 241.17 40.1988C244.602 42.3286 247.178 45.2703 248.898 49.0316V38.8084H261V99.1836H248.898V89.0327C247.149 92.794 244.566 95.7276 241.141 97.8334C237.724 99.9471 233.831 101 229.456 101ZM232.493 87.8592C234.709 87.8592 236.781 87.377 238.709 86.4286C240.638 85.4641 242.329 84.1219 243.775 82.4261C245.235 80.7222 246.365 78.721 247.171 76.4223C247.977 74.1398 248.38 71.6563 248.38 68.996C248.38 66.3759 247.97 63.9245 247.142 61.642C246.315 59.3514 245.185 57.3421 243.746 55.6141C242.314 53.8861 240.638 52.5439 238.709 51.5955C236.781 50.631 234.709 50.1488 232.493 50.1488C229.586 50.1488 226.931 50.9284 224.535 52.4876C222.139 54.0629 220.218 56.249 218.779 59.0861C217.34 61.8992 216.62 65.2105 216.62 68.996C216.62 72.9101 217.347 76.2777 218.793 79.0987C220.254 81.9198 222.189 84.0818 224.607 85.5847C227.032 87.1037 229.665 87.8592 232.493 87.8592Z" fill="#50C878"/>
<path d="M216.993 131C215.929 131 215.017 130.839 214.257 130.527C213.504 130.197 212.889 129.775 212.404 129.242C211.919 128.701 211.565 128.101 211.333 127.451C211.109 126.783 211 126.124 211 125.456H213.692C213.692 125.989 213.815 126.47 214.069 126.91C214.329 127.349 214.706 127.696 215.198 127.958C215.69 128.22 216.283 128.346 216.978 128.346C219.171 128.346 220.264 127.493 220.264 125.777C220.264 125.245 220.127 124.823 219.844 124.493C219.562 124.155 219.171 123.885 218.657 123.682C218.158 123.47 217.565 123.285 216.877 123.141C216.385 123.014 215.878 122.87 215.357 122.701C214.843 122.532 214.351 122.321 213.881 122.076C213.41 121.814 212.983 121.501 212.607 121.13C212.23 120.758 211.934 120.31 211.709 119.794C211.485 119.279 211.376 118.654 211.376 117.935C211.376 116.997 211.572 116.161 211.955 115.417C212.339 114.673 212.94 114.09 213.75 113.659C214.568 113.22 215.618 113 216.891 113C218.115 113 219.142 113.211 219.96 113.642C220.778 114.073 221.4 114.673 221.813 115.451C222.226 116.228 222.435 117.132 222.435 118.155H219.743C219.743 117.715 219.642 117.318 219.439 116.955C219.236 116.583 218.925 116.287 218.498 116.076C218.071 115.865 217.528 115.755 216.862 115.755C216.305 115.755 215.842 115.814 215.473 115.941C215.118 116.068 214.836 116.237 214.633 116.448C214.431 116.651 214.286 116.887 214.199 117.158C214.112 117.42 214.069 117.682 214.069 117.952C214.069 118.662 214.38 119.211 214.995 119.592C215.61 119.972 216.537 120.285 217.774 120.521C218.448 120.656 219.099 120.851 219.729 121.113C220.358 121.358 220.908 121.687 221.393 122.093C221.885 122.49 222.276 122.989 222.566 123.597C222.855 124.197 223 124.924 223 125.794C223 126.91 222.747 127.856 222.247 128.634C221.755 129.403 221.06 129.986 220.163 130.392C219.265 130.797 218.209 131 216.993 131Z" fill="black"/>
<path d="M241.792 129H239.208V116.446H235V114H246V116.446H241.792V129Z" fill="black"/>
<path d="M263.508 112.285C263.127 112.285 262.812 112.172 262.57 111.954C262.336 111.736 262.219 111.466 262.219 111.142C262.219 110.834 262.336 110.564 262.57 110.346C262.812 110.113 263.127 110 263.508 110C263.889 110 264.196 110.113 264.431 110.346C264.665 110.564 264.782 110.834 264.782 111.142C264.782 111.466 264.665 111.736 264.431 111.954C264.196 112.172 263.889 112.285 263.508 112.285ZM267.463 112.285C267.089 112.285 266.789 112.172 266.555 111.954C266.32 111.736 266.203 111.466 266.203 111.142C266.203 110.834 266.32 110.564 266.555 110.346C266.789 110.113 267.089 110 267.463 110C267.851 110 268.166 110.113 268.4 110.346C268.642 110.564 268.767 110.834 268.767 111.142C268.767 111.466 268.642 111.736 268.4 111.954C268.166 112.172 267.851 112.285 267.463 112.285ZM273 129H270.114L268.928 126.039H262.058L260.886 129H258L264.196 113.683H266.789L273 129ZM265.397 117.666L262.995 123.694H267.99L265.588 117.666L265.515 117.305H265.485L265.397 117.666Z" fill="black"/>
<path d="M290.498 129H285V114H290.456C291.597 114 292.627 114.184 293.546 114.545C294.472 114.899 295.265 115.407 295.926 116.063C296.594 116.719 297.102 117.514 297.457 118.435C297.819 119.349 298 120.365 298 121.485C298 122.612 297.819 123.644 297.457 124.565C297.102 125.486 296.594 126.281 295.926 126.937C295.265 127.593 294.479 128.109 293.56 128.47C292.641 128.823 291.618 129 290.498 129ZM287.561 116.431V126.554H290.414C291.444 126.554 292.328 126.355 293.073 125.95C293.817 125.537 294.388 124.955 294.785 124.211C295.181 123.452 295.383 122.561 295.383 121.529C295.383 120.505 295.188 119.614 294.799 118.848C294.409 118.082 293.845 117.485 293.101 117.065C292.356 116.645 291.451 116.431 290.387 116.431H287.561Z" fill="black"/>
<path d="M47.8 19.6538V25.5769L58 15H24L34.9933 26V19.6538H47.8Z" fill="black"/>
<path d="M8.66717e-06 9H82V15H0V12L8.66717e-06 9Z" fill="black"/>
<path d="M1.68735e-05 0H82V6H4.33359e-06V3L1.68735e-05 0Z" fill="black"/>
<path d="M34 18H48V97H34V18Z" fill="black"/>
<path d="M69.9194 97H57V38H69.3933V48.6737C70.6721 45.43 72.5574 42.8381 75.0492 40.906C77.541 38.9739 80.5662 38 84.1249 38H90V49.9461H84.8118C81.8596 49.9461 79.2655 50.7079 77.0221 52.2316C74.7788 53.7632 73.0396 55.9859 71.7901 58.8998C70.5405 61.8058 69.9194 65.3637 69.9194 69.5578V97Z" fill="white"/>
<path d="M144 67.9351C144 68.6906 143.978 69.3978 143.941 70.0569C143.911 70.732 143.837 71.6322 143.733 72.7574H100.181C100.641 76.0526 101.606 78.8576 103.076 81.1723C104.538 83.479 106.356 85.2391 108.523 86.4768C110.698 87.7065 113.073 88.3254 115.634 88.3254C118.959 88.3254 121.645 87.6101 123.709 86.1875C125.772 84.7488 127.279 82.7637 128.221 80.2239H142.545C141.848 82.9244 140.72 85.5284 139.146 88.036C137.573 90.5436 135.643 92.7619 133.372 94.7069C131.093 96.6358 128.481 98.1629 125.534 99.3042C122.588 100.437 119.382 101 115.916 101C111.722 101 107.855 100.172 104.323 98.5085C100.797 96.8528 97.7469 94.5542 95.1641 91.6206C92.5812 88.6871 90.5699 85.2793 89.1375 81.3973C87.7125 77.5154 87 73.3843 87 68.996C87 64.5755 87.7125 60.4364 89.1375 56.5786C90.5699 52.7207 92.5812 49.321 95.1641 46.3874C97.7469 43.4538 100.797 41.1552 104.323 39.4835C107.855 37.8278 111.722 37 115.916 37C120.102 37 123.924 37.8278 127.375 39.4674C130.826 41.107 133.787 43.3735 136.266 46.2588C138.745 49.1281 140.66 52.4233 141.996 56.1445C143.332 59.8658 144 63.7879 144 67.9351ZM100.73 61.7866H130.611C130.433 59.5121 129.654 57.4466 128.28 55.5739C126.9 53.7173 125.126 52.2144 122.952 51.0972C120.784 49.9559 118.417 49.3933 115.856 49.3933C113.645 49.3933 111.529 49.8354 109.503 50.7114C107.484 51.5875 105.703 52.9377 104.159 54.7622C102.623 56.5866 101.48 58.9254 100.73 61.7866Z" fill="white"/>
<path d="M171.159 101C167.335 101 163.82 100.185 160.6 98.5557C157.395 96.9182 154.63 94.6417 152.318 91.7181C149.998 88.8026 148.198 85.4237 146.916 81.5736C145.641 77.7155 145 73.5938 145 69.1925C145 64.7912 145.619 60.6774 146.873 56.8433C148.119 53.0091 149.905 49.6303 152.231 46.7147C154.565 43.7992 157.345 41.5146 160.572 39.8612C163.806 38.2077 167.385 37.3849 171.318 37.3849C174.263 37.3849 176.943 37.9601 179.341 39.1103C181.747 40.2526 183.821 41.7143 185.55 43.4876C187.285 45.2609 188.632 47.0981 189.583 48.9992L189.324 42.7528V17H202V99.1948H189.9V89.0981C188.841 91.1989 187.422 93.148 185.636 94.9612C183.85 96.7744 181.74 98.2282 179.312 99.3385C176.892 100.449 174.177 101 171.159 101ZM173.478 87.9798C175.682 87.9798 177.757 87.5086 179.687 86.558C181.617 85.5995 183.303 84.2735 184.757 82.5641C186.212 80.8547 187.357 78.8498 188.186 76.5732C189.007 74.2967 189.425 71.8364 189.425 69.1925C189.425 66.5405 189.021 64.0882 188.215 61.8437C187.408 59.5831 186.277 57.6021 184.815 55.8847C183.36 54.1754 181.675 52.8414 179.745 51.8908C177.814 50.9323 175.726 50.453 173.478 50.453C170.489 50.453 167.788 51.2598 165.368 52.8813C162.948 54.4949 161.04 56.6995 159.635 59.4952C158.231 62.299 157.532 65.5261 157.532 69.1925C157.532 72.7311 158.209 75.9182 159.578 78.7619C160.953 81.6056 162.84 83.8501 165.239 85.5036C167.637 87.1571 170.389 87.9798 173.478 87.9798Z" fill="#50C878"/>
<path d="M229.456 101C225.809 101 222.434 100.188 219.326 98.5487C216.225 96.901 213.526 94.6024 211.224 91.6608C208.929 88.7272 207.151 85.3275 205.885 81.4616C204.626 77.5797 204 73.4325 204 68.996C204 64.5755 204.64 60.4364 205.914 56.5786C207.202 52.7207 208.986 49.321 211.281 46.3874C213.577 43.4538 216.268 41.1552 219.354 39.4835C222.441 37.8278 225.794 37 229.399 37C233.81 37 237.738 38.0689 241.17 40.1988C244.602 42.3286 247.178 45.2703 248.898 49.0316V38.8084H261V99.1836H248.898V89.0327C247.149 92.794 244.566 95.7276 241.141 97.8334C237.724 99.9471 233.831 101 229.456 101ZM232.493 87.8592C234.709 87.8592 236.781 87.377 238.709 86.4286C240.638 85.4641 242.329 84.1219 243.775 82.4261C245.235 80.7222 246.365 78.721 247.171 76.4223C247.977 74.1398 248.38 71.6563 248.38 68.996C248.38 66.3759 247.97 63.9245 247.142 61.642C246.315 59.3514 245.185 57.3421 243.746 55.6141C242.314 53.8861 240.638 52.5439 238.709 51.5955C236.781 50.631 234.709 50.1488 232.493 50.1488C229.586 50.1488 226.931 50.9284 224.535 52.4876C222.139 54.0629 220.218 56.249 218.779 59.0861C217.34 61.8992 216.62 65.2105 216.62 68.996C216.62 72.9101 217.347 76.2777 218.793 79.0987C220.254 81.9198 222.189 84.0818 224.607 85.5847C227.032 87.1037 229.665 87.8592 232.493 87.8592Z" fill="#50C878"/>
<path d="M216.993 131C215.929 131 215.017 130.839 214.257 130.527C213.504 130.197 212.889 129.775 212.404 129.242C211.919 128.701 211.565 128.101 211.333 127.451C211.109 126.783 211 126.124 211 125.456H213.692C213.692 125.989 213.815 126.47 214.069 126.91C214.329 127.349 214.706 127.696 215.198 127.958C215.69 128.22 216.283 128.346 216.978 128.346C219.171 128.346 220.264 127.493 220.264 125.777C220.264 125.245 220.127 124.823 219.844 124.493C219.562 124.155 219.171 123.885 218.657 123.682C218.158 123.47 217.565 123.285 216.877 123.141C216.385 123.014 215.878 122.87 215.357 122.701C214.843 122.532 214.351 122.321 213.881 122.076C213.41 121.814 212.983 121.501 212.607 121.13C212.23 120.758 211.934 120.31 211.709 119.794C211.485 119.279 211.376 118.654 211.376 117.935C211.376 116.997 211.572 116.161 211.955 115.417C212.339 114.673 212.94 114.09 213.75 113.659C214.568 113.22 215.618 113 216.891 113C218.115 113 219.142 113.211 219.96 113.642C220.778 114.073 221.4 114.673 221.813 115.451C222.226 116.228 222.435 117.132 222.435 118.155H219.743C219.743 117.715 219.642 117.318 219.439 116.955C219.236 116.583 218.925 116.287 218.498 116.076C218.071 115.865 217.528 115.755 216.862 115.755C216.305 115.755 215.842 115.814 215.473 115.941C215.118 116.068 214.836 116.237 214.633 116.448C214.431 116.651 214.286 116.887 214.199 117.158C214.112 117.42 214.069 117.682 214.069 117.952C214.069 118.662 214.38 119.211 214.995 119.592C215.61 119.972 216.537 120.285 217.774 120.521C218.448 120.656 219.099 120.851 219.729 121.113C220.358 121.358 220.908 121.687 221.393 122.093C221.885 122.49 222.276 122.989 222.566 123.597C222.855 124.197 223 124.924 223 125.794C223 126.91 222.747 127.856 222.247 128.634C221.755 129.403 221.06 129.986 220.163 130.392C219.265 130.797 218.209 131 216.993 131Z" fill="black"/>
<path d="M241.792 129H239.208V116.446H235V114H246V116.446H241.792V129Z" fill="black"/>
<path d="M263.508 112.285C263.127 112.285 262.812 112.172 262.57 111.954C262.336 111.736 262.219 111.466 262.219 111.142C262.219 110.834 262.336 110.564 262.57 110.346C262.812 110.113 263.127 110 263.508 110C263.889 110 264.196 110.113 264.431 110.346C264.665 110.564 264.782 110.834 264.782 111.142C264.782 111.466 264.665 111.736 264.431 111.954C264.196 112.172 263.889 112.285 263.508 112.285ZM267.463 112.285C267.089 112.285 266.789 112.172 266.555 111.954C266.32 111.736 266.203 111.466 266.203 111.142C266.203 110.834 266.32 110.564 266.555 110.346C266.789 110.113 267.089 110 267.463 110C267.851 110 268.166 110.113 268.4 110.346C268.642 110.564 268.767 110.834 268.767 111.142C268.767 111.466 268.642 111.736 268.4 111.954C268.166 112.172 267.851 112.285 267.463 112.285ZM273 129H270.114L268.928 126.039H262.058L260.886 129H258L264.196 113.683H266.789L273 129ZM265.397 117.666L262.995 123.694H267.99L265.588 117.666L265.515 117.305H265.485L265.397 117.666Z" fill="black"/>
<path d="M290.498 129H285V114H290.456C291.597 114 292.627 114.184 293.546 114.545C294.472 114.899 295.265 115.407 295.926 116.063C296.594 116.719 297.102 117.514 297.457 118.435C297.819 119.349 298 120.365 298 121.485C298 122.612 297.819 123.644 297.457 124.565C297.102 125.486 296.594 126.281 295.926 126.937C295.265 127.593 294.479 128.109 293.56 128.47C292.641 128.823 291.618 129 290.498 129ZM287.561 116.431V126.554H290.414C291.444 126.554 292.328 126.355 293.073 125.95C293.817 125.537 294.388 124.955 294.785 124.211C295.181 123.452 295.383 122.561 295.383 121.529C295.383 120.505 295.188 119.614 294.799 118.848C294.409 118.082 293.845 117.485 293.101 117.065C292.356 116.645 291.451 116.431 290.387 116.431H287.561Z" fill="black"/>
<path d="M47.8 19.6538V25.5769L58 15H24L34.9933 26V19.6538H47.8Z" fill="black"/>
<path d="M8.66717e-06 9H82V15H0V12L8.66717e-06 9Z" fill="black"/>
<path d="M1.68735e-05 0H82V6H4.33359e-06V3L1.68735e-05 0Z" fill="black"/>
<path d="M34 18H48V97H34V18Z" fill="black"/>
<path d="M69.9194 97H57V38H69.3933V48.6737C70.6721 45.43 72.5574 42.8381 75.0492 40.906C77.541 38.9739 80.5662 38 84.1249 38H90V49.9461H84.8118C81.8596 49.9461 79.2655 50.7079 77.0221 52.2316C74.7788 53.7632 73.0396 55.9859 71.7901 58.8998C70.5405 61.8058 69.9194 65.3637 69.9194 69.5578V97Z" fill="white"/>
<path d="M144 67.9351C144 68.6906 143.978 69.3978 143.941 70.0569C143.911 70.732 143.837 71.6322 143.733 72.7574H100.181C100.641 76.0526 101.606 78.8576 103.076 81.1723C104.538 83.479 106.356 85.2391 108.523 86.4768C110.698 87.7065 113.073 88.3254 115.634 88.3254C118.959 88.3254 121.645 87.6101 123.709 86.1875C125.772 84.7488 127.279 82.7637 128.221 80.2239H142.545C141.848 82.9244 140.72 85.5284 139.146 88.036C137.573 90.5436 135.643 92.7619 133.372 94.7069C131.093 96.6358 128.481 98.1629 125.534 99.3042C122.588 100.437 119.382 101 115.916 101C111.722 101 107.855 100.172 104.323 98.5085C100.797 96.8528 97.7469 94.5542 95.1641 91.6206C92.5812 88.6871 90.5699 85.2793 89.1375 81.3973C87.7125 77.5154 87 73.3843 87 68.996C87 64.5755 87.7125 60.4364 89.1375 56.5786C90.5699 52.7207 92.5812 49.321 95.1641 46.3874C97.7469 43.4538 100.797 41.1552 104.323 39.4835C107.855 37.8278 111.722 37 115.916 37C120.102 37 123.924 37.8278 127.375 39.4674C130.826 41.107 133.787 43.3735 136.266 46.2588C138.745 49.1281 140.66 52.4233 141.996 56.1445C143.332 59.8658 144 63.7879 144 67.9351ZM100.73 61.7866H130.611C130.433 59.5121 129.654 57.4466 128.28 55.5739C126.9 53.7173 125.126 52.2144 122.952 51.0972C120.784 49.9559 118.417 49.3933 115.856 49.3933C113.645 49.3933 111.529 49.8354 109.503 50.7114C107.484 51.5875 105.703 52.9377 104.159 54.7622C102.623 56.5866 101.48 58.9254 100.73 61.7866Z" fill="white"/>
<path d="M171.159 101C167.335 101 163.82 100.185 160.6 98.5557C157.395 96.9182 154.63 94.6417 152.318 91.7181C149.998 88.8026 148.198 85.4237 146.916 81.5736C145.641 77.7155 145 73.5938 145 69.1925C145 64.7912 145.619 60.6774 146.873 56.8433C148.119 53.0091 149.905 49.6303 152.231 46.7147C154.565 43.7992 157.345 41.5146 160.572 39.8612C163.806 38.2077 167.385 37.3849 171.318 37.3849C174.263 37.3849 176.943 37.9601 179.341 39.1103C181.747 40.2526 183.821 41.7143 185.55 43.4876C187.285 45.2609 188.632 47.0981 189.583 48.9992L189.324 42.7528V17H202V99.1948H189.9V89.0981C188.841 91.1989 187.422 93.148 185.636 94.9612C183.85 96.7744 181.74 98.2282 179.312 99.3385C176.892 100.449 174.177 101 171.159 101ZM173.478 87.9798C175.682 87.9798 177.757 87.5086 179.687 86.558C181.617 85.5995 183.303 84.2735 184.757 82.5641C186.212 80.8547 187.357 78.8498 188.186 76.5732C189.007 74.2967 189.425 71.8364 189.425 69.1925C189.425 66.5405 189.021 64.0882 188.215 61.8437C187.408 59.5831 186.277 57.6021 184.815 55.8847C183.36 54.1754 181.675 52.8414 179.745 51.8908C177.814 50.9323 175.726 50.453 173.478 50.453C170.489 50.453 167.788 51.2598 165.368 52.8813C162.948 54.4949 161.04 56.6995 159.635 59.4952C158.231 62.299 157.532 65.5261 157.532 69.1925C157.532 72.7311 158.209 75.9182 159.578 78.7619C160.953 81.6056 162.84 83.8501 165.239 85.5036C167.637 87.1571 170.389 87.9798 173.478 87.9798Z" fill="#50C878"/>
<path d="M229.456 101C225.809 101 222.434 100.188 219.326 98.5487C216.225 96.901 213.526 94.6024 211.224 91.6608C208.929 88.7272 207.151 85.3275 205.885 81.4616C204.626 77.5797 204 73.4325 204 68.996C204 64.5755 204.64 60.4364 205.914 56.5786C207.202 52.7207 208.986 49.321 211.281 46.3874C213.577 43.4538 216.268 41.1552 219.354 39.4835C222.441 37.8278 225.794 37 229.399 37C233.81 37 237.738 38.0689 241.17 40.1988C244.602 42.3286 247.178 45.2703 248.898 49.0316V38.8084H261V99.1836H248.898V89.0327C247.149 92.794 244.566 95.7276 241.141 97.8334C237.724 99.9471 233.831 101 229.456 101ZM232.493 87.8592C234.709 87.8592 236.781 87.377 238.709 86.4286C240.638 85.4641 242.329 84.1219 243.775 82.4261C245.235 80.7222 246.365 78.721 247.171 76.4223C247.977 74.1398 248.38 71.6563 248.38 68.996C248.38 66.3759 247.97 63.9245 247.142 61.642C246.315 59.3514 245.185 57.3421 243.746 55.6141C242.314 53.8861 240.638 52.5439 238.709 51.5955C236.781 50.631 234.709 50.1488 232.493 50.1488C229.586 50.1488 226.931 50.9284 224.535 52.4876C222.139 54.0629 220.218 56.249 218.779 59.0861C217.34 61.8992 216.62 65.2105 216.62 68.996C216.62 72.9101 217.347 76.2777 218.793 79.0987C220.254 81.9198 222.189 84.0818 224.607 85.5847C227.032 87.1037 229.665 87.8592 232.493 87.8592Z" fill="#50C878"/>
<path d="M216.993 131C215.929 131 215.017 130.839 214.257 130.527C213.504 130.197 212.889 129.775 212.404 129.242C211.919 128.701 211.565 128.101 211.333 127.451C211.109 126.783 211 126.124 211 125.456H213.692C213.692 125.989 213.815 126.47 214.069 126.91C214.329 127.349 214.706 127.696 215.198 127.958C215.69 128.22 216.283 128.346 216.978 128.346C219.171 128.346 220.264 127.493 220.264 125.777C220.264 125.245 220.127 124.823 219.844 124.493C219.562 124.155 219.171 123.885 218.657 123.682C218.158 123.47 217.565 123.285 216.877 123.141C216.385 123.014 215.878 122.87 215.357 122.701C214.843 122.532 214.351 122.321 213.881 122.076C213.41 121.814 212.983 121.501 212.607 121.13C212.23 120.758 211.934 120.31 211.709 119.794C211.485 119.279 211.376 118.654 211.376 117.935C211.376 116.997 211.572 116.161 211.955 115.417C212.339 114.673 212.94 114.09 213.75 113.659C214.568 113.22 215.618 113 216.891 113C218.115 113 219.142 113.211 219.96 113.642C220.778 114.073 221.4 114.673 221.813 115.451C222.226 116.228 222.435 117.132 222.435 118.155H219.743C219.743 117.715 219.642 117.318 219.439 116.955C219.236 116.583 218.925 116.287 218.498 116.076C218.071 115.865 217.528 115.755 216.862 115.755C216.305 115.755 215.842 115.814 215.473 115.941C215.118 116.068 214.836 116.237 214.633 116.448C214.431 116.651 214.286 116.887 214.199 117.158C214.112 117.42 214.069 117.682 214.069 117.952C214.069 118.662 214.38 119.211 214.995 119.592C215.61 119.972 216.537 120.285 217.774 120.521C218.448 120.656 219.099 120.851 219.729 121.113C220.358 121.358 220.908 121.687 221.393 122.093C221.885 122.49 222.276 122.989 222.566 123.597C222.855 124.197 223 124.924 223 125.794C223 126.91 222.747 127.856 222.247 128.634C221.755 129.403 221.06 129.986 220.163 130.392C219.265 130.797 218.209 131 216.993 131Z" fill="black"/>
<path d="M241.792 129H239.208V116.446H235V114H246V116.446H241.792V129Z" fill="black"/>
<path d="M263.508 112.285C263.127 112.285 262.812 112.172 262.57 111.954C262.336 111.736 262.219 111.466 262.219 111.142C262.219 110.834 262.336 110.564 262.57 110.346C262.812 110.113 263.127 110 263.508 110C263.889 110 264.196 110.113 264.431 110.346C264.665 110.564 264.782 110.834 264.782 111.142C264.782 111.466 264.665 111.736 264.431 111.954C264.196 112.172 263.889 112.285 263.508 112.285ZM267.463 112.285C267.089 112.285 266.789 112.172 266.555 111.954C266.32 111.736 266.203 111.466 266.203 111.142C266.203 110.834 266.32 110.564 266.555 110.346C266.789 110.113 267.089 110 267.463 110C267.851 110 268.166 110.113 268.4 110.346C268.642 110.564 268.767 110.834 268.767 111.142C268.767 111.466 268.642 111.736 268.4 111.954C268.166 112.172 267.851 112.285 267.463 112.285ZM273 129H270.114L268.928 126.039H262.058L260.886 129H258L264.196 113.683H266.789L273 129ZM265.397 117.666L262.995 123.694H267.99L265.588 117.666L265.515 117.305H265.485L265.397 117.666Z" fill="black"/>
<path d="M290.498 129H285V114H290.456C291.597 114 292.627 114.184 293.546 114.545C294.472 114.899 295.265 115.407 295.926 116.063C296.594 116.719 297.102 117.514 297.457 118.435C297.819 119.349 298 120.365 298 121.485C298 122.612 297.819 123.644 297.457 124.565C297.102 125.486 296.594 126.281 295.926 126.937C295.265 127.593 294.479 128.109 293.56 128.47C292.641 128.823 291.618 129 290.498 129ZM287.561 116.431V126.554H290.414C291.444 126.554 292.328 126.355 293.073 125.95C293.817 125.537 294.388 124.955 294.785 124.211C295.181 123.452 295.383 122.561 295.383 121.529C295.383 120.505 295.188 119.614 294.799 118.848C294.409 118.082 293.845 117.485 293.101 117.065C292.356 116.645 291.451 116.431 290.387 116.431H287.561Z" fill="black"/>
<path d="M47.8 19.6538V25.5769L58 15H24L34.9933 26V19.6538H47.8Z" fill="black"/>
<path d="M8.66717e-06 9H82V15H0V12L8.66717e-06 9Z" fill="black"/>
<path d="M1.68735e-05 0H82V6H4.33359e-06V3L1.68735e-05 0Z" fill="black"/>
<path d="M34 18H48V97H34V18Z" fill="black"/>
<path d="M69.9194 97H57V38H69.3933V48.6737C70.6721 45.43 72.5574 42.8381 75.0492 40.906C77.541 38.9739 80.5662 38 84.1249 38H90V49.9461H84.8118C81.8596 49.9461 79.2655 50.7079 77.0221 52.2316C74.7788 53.7632 73.0396 55.9859 71.7901 58.8998C70.5405 61.8058 69.9194 65.3637 69.9194 69.5578V97Z" fill="#50C878"/>
<path d="M144 67.9351C144 68.6906 143.978 69.3978 143.941 70.0569C143.911 70.732 143.837 71.6322 143.733 72.7574H100.181C100.641 76.0526 101.606 78.8576 103.076 81.1723C104.538 83.479 106.356 85.2391 108.523 86.4768C110.698 87.7065 113.073 88.3254 115.634 88.3254C118.959 88.3254 121.645 87.6101 123.709 86.1875C125.772 84.7488 127.279 82.7637 128.221 80.2239H142.545C141.848 82.9244 140.72 85.5284 139.146 88.036C137.573 90.5436 135.643 92.7619 133.372 94.7069C131.093 96.6358 128.481 98.1629 125.534 99.3042C122.588 100.437 119.382 101 115.916 101C111.722 101 107.855 100.172 104.323 98.5085C100.797 96.8528 97.7469 94.5542 95.1641 91.6206C92.5812 88.6871 90.5699 85.2793 89.1375 81.3973C87.7125 77.5154 87 73.3843 87 68.996C87 64.5755 87.7125 60.4364 89.1375 56.5786C90.5699 52.7207 92.5812 49.321 95.1641 46.3874C97.7469 43.4538 100.797 41.1552 104.323 39.4835C107.855 37.8278 111.722 37 115.916 37C120.102 37 123.924 37.8278 127.375 39.4674C130.826 41.107 133.787 43.3735 136.266 46.2588C138.745 49.1281 140.66 52.4233 141.996 56.1445C143.332 59.8658 144 63.7879 144 67.9351ZM100.73 61.7866H130.611C130.433 59.5121 129.654 57.4466 128.28 55.5739C126.9 53.7173 125.126 52.2144 122.952 51.0972C120.784 49.9559 118.417 49.3933 115.856 49.3933C113.645 49.3933 111.529 49.8354 109.503 50.7114C107.484 51.5875 105.703 52.9377 104.159 54.7622C102.623 56.5866 101.48 58.9254 100.73 61.7866Z" fill="#50C878"/>
<path d="M171.159 101C167.335 101 163.82 100.185 160.6 98.5557C157.395 96.9182 154.63 94.6417 152.318 91.7181C149.998 88.8026 148.198 85.4237 146.916 81.5736C145.641 77.7155 145 73.5938 145 69.1925C145 64.7912 145.619 60.6774 146.873 56.8433C148.119 53.0091 149.905 49.6303 152.231 46.7147C154.565 43.7992 157.345 41.5146 160.572 39.8612C163.806 38.2077 167.385 37.3849 171.318 37.3849C174.263 37.3849 176.943 37.9601 179.341 39.1103C181.747 40.2526 183.821 41.7143 185.55 43.4876C187.285 45.2609 188.632 47.0981 189.583 48.9992L189.324 42.7528V17H202V99.1948H189.9V89.0981C188.841 91.1989 187.422 93.148 185.636 94.9612C183.85 96.7744 181.74 98.2282 179.312 99.3385C176.892 100.449 174.177 101 171.159 101ZM173.478 87.9798C175.682 87.9798 177.757 87.5086 179.687 86.558C181.617 85.5995 183.303 84.2735 184.757 82.5641C186.212 80.8547 187.357 78.8498 188.186 76.5732C189.007 74.2967 189.425 71.8364 189.425 69.1925C189.425 66.5405 189.021 64.0882 188.215 61.8437C187.408 59.5831 186.277 57.6021 184.815 55.8847C183.36 54.1754 181.675 52.8414 179.745 51.8908C177.814 50.9323 175.726 50.453 173.478 50.453C170.489 50.453 167.788 51.2598 165.368 52.8813C162.948 54.4949 161.04 56.6995 159.635 59.4952C158.231 62.299 157.532 65.5261 157.532 69.1925C157.532 72.7311 158.209 75.9182 159.578 78.7619C160.953 81.6056 162.84 83.8501 165.239 85.5036C167.637 87.1571 170.389 87.9798 173.478 87.9798Z" fill="#50C878"/>
<path d="M229.456 101C225.809 101 222.434 100.188 219.326 98.5487C216.225 96.901 213.526 94.6024 211.224 91.6608C208.929 88.7272 207.151 85.3275 205.885 81.4616C204.626 77.5797 204 73.4325 204 68.996C204 64.5755 204.64 60.4364 205.914 56.5786C207.202 52.7207 208.986 49.321 211.281 46.3874C213.577 43.4538 216.268 41.1552 219.354 39.4835C222.441 37.8278 225.794 37 229.399 37C233.81 37 237.738 38.0689 241.17 40.1988C244.602 42.3286 247.178 45.2703 248.898 49.0316V38.8084H261V99.1836H248.898V89.0327C247.149 92.794 244.566 95.7276 241.141 97.8334C237.724 99.9471 233.831 101 229.456 101ZM232.493 87.8592C234.709 87.8592 236.781 87.377 238.709 86.4286C240.638 85.4641 242.329 84.1219 243.775 82.4261C245.235 80.7222 246.365 78.721 247.171 76.4223C247.977 74.1398 248.38 71.6563 248.38 68.996C248.38 66.3759 247.97 63.9245 247.142 61.642C246.315 59.3514 245.185 57.3421 243.746 55.6141C242.314 53.8861 240.638 52.5439 238.709 51.5955C236.781 50.631 234.709 50.1488 232.493 50.1488C229.586 50.1488 226.931 50.9284 224.535 52.4876C222.139 54.0629 220.218 56.249 218.779 59.0861C217.34 61.8992 216.62 65.2105 216.62 68.996C216.62 72.9101 217.347 76.2777 218.793 79.0987C220.254 81.9198 222.189 84.0818 224.607 85.5847C227.032 87.1037 229.665 87.8592 232.493 87.8592Z" fill="#50C878"/>
<path d="M216.993 131C215.929 131 215.017 130.839 214.257 130.527C213.504 130.197 212.889 129.775 212.404 129.242C211.919 128.701 211.565 128.101 211.333 127.451C211.109 126.783 211 126.124 211 125.456H213.692C213.692 125.989 213.815 126.47 214.069 126.91C214.329 127.349 214.706 127.696 215.198 127.958C215.69 128.22 216.283 128.346 216.978 128.346C219.171 128.346 220.264 127.493 220.264 125.777C220.264 125.245 220.127 124.823 219.844 124.493C219.562 124.155 219.171 123.885 218.657 123.682C218.158 123.47 217.565 123.285 216.877 123.141C216.385 123.014 215.878 122.87 215.357 122.701C214.843 122.532 214.351 122.321 213.881 122.076C213.41 121.814 212.983 121.501 212.607 121.13C212.23 120.758 211.934 120.31 211.709 119.794C211.485 119.279 211.376 118.654 211.376 117.935C211.376 116.997 211.572 116.161 211.955 115.417C212.339 114.673 212.94 114.09 213.75 113.659C214.568 113.22 215.618 113 216.891 113C218.115 113 219.142 113.211 219.96 113.642C220.778 114.073 221.4 114.673 221.813 115.451C222.226 116.228 222.435 117.132 222.435 118.155H219.743C219.743 117.715 219.642 117.318 219.439 116.955C219.236 116.583 218.925 116.287 218.498 116.076C218.071 115.865 217.528 115.755 216.862 115.755C216.305 115.755 215.842 115.814 215.473 115.941C215.118 116.068 214.836 116.237 214.633 116.448C214.431 116.651 214.286 116.887 214.199 117.158C214.112 117.42 214.069 117.682 214.069 117.952C214.069 118.662 214.38 119.211 214.995 119.592C215.61 119.972 216.537 120.285 217.774 120.521C218.448 120.656 219.099 120.851 219.729 121.113C220.358 121.358 220.908 121.687 221.393 122.093C221.885 122.49 222.276 122.989 222.566 123.597C222.855 124.197 223 124.924 223 125.794C223 126.91 222.747 127.856 222.247 128.634C221.755 129.403 221.06 129.986 220.163 130.392C219.265 130.797 218.209 131 216.993 131Z" fill="black"/>
<path d="M241.792 129H239.208V116.446H235V114H246V116.446H241.792V129Z" fill="black"/>
<path d="M263.508 112.285C263.127 112.285 262.812 112.172 262.57 111.954C262.336 111.736 262.219 111.466 262.219 111.142C262.219 110.834 262.336 110.564 262.57 110.346C262.812 110.113 263.127 110 263.508 110C263.889 110 264.196 110.113 264.431 110.346C264.665 110.564 264.782 110.834 264.782 111.142C264.782 111.466 264.665 111.736 264.431 111.954C264.196 112.172 263.889 112.285 263.508 112.285ZM267.463 112.285C267.089 112.285 266.789 112.172 266.555 111.954C266.32 111.736 266.203 111.466 266.203 111.142C266.203 110.834 266.32 110.564 266.555 110.346C266.789 110.113 267.089 110 267.463 110C267.851 110 268.166 110.113 268.4 110.346C268.642 110.564 268.767 110.834 268.767 111.142C268.767 111.466 268.642 111.736 268.4 111.954C268.166 112.172 267.851 112.285 267.463 112.285ZM273 129H270.114L268.928 126.039H262.058L260.886 129H258L264.196 113.683H266.789L273 129ZM265.397 117.666L262.995 123.694H267.99L265.588 117.666L265.515 117.305H265.485L265.397 117.666Z" fill="black"/>
<path d="M290.498 129H285V114H290.456C291.597 114 292.627 114.184 293.546 114.545C294.472 114.899 295.265 115.407 295.926 116.063C296.594 116.719 297.102 117.514 297.457 118.435C297.819 119.349 298 120.365 298 121.485C298 122.612 297.819 123.644 297.457 124.565C297.102 125.486 296.594 126.281 295.926 126.937C295.265 127.593 294.479 128.109 293.56 128.47C292.641 128.823 291.618 129 290.498 129ZM287.561 116.431V126.554H290.414C291.444 126.554 292.328 126.355 293.073 125.95C293.817 125.537 294.388 124.955 294.785 124.211C295.181 123.452 295.383 122.561 295.383 121.529C295.383 120.505 295.188 119.614 294.799 118.848C294.409 118.082 293.845 117.485 293.101 117.065C292.356 116.645 291.451 116.431 290.387 116.431H287.561Z" fill="black"/>
<path d="M47.8 19.6538V25.5769L58 15H24L34.9933 26V19.6538H47.8Z" fill="black"/>
<path d="M8.66717e-06 9H82V15H0V12L8.66717e-06 9Z" fill="black"/>
<path d="M1.68735e-05 0H82V6H4.33359e-06V3L1.68735e-05 0Z" fill="black"/>
</svg>
